
<!-- Leagues -->
<svg viewBox="0 0 40 40" fill="none" xmlns="http://www.w3.org/2000/svg" role="graphics-symbol">
<title>Ranking Icon</title>
<path d="M3.33203 35V15H11.6654V35H3.33203ZM15.832 35V5H24.1654V35H15.832ZM28.332 35V18.3333H36.6654V35H28.332Z" class="fill"/>
</svg>

<!-- Tournaments -->
<svg viewBox="0 0 40 40" fill="none" xmlns="http://www.w3.org/2000/svg" role="graphics-symbol" class="icon_card--icon">
<title>Trophey Icon</title>
<path d="M9.13193 36.6673C8.79846 36.6673 8.48698 36.5164 8.27705 36.2531C8.06711 35.9898 7.98678 35.6495 8.05575 35.3184L9.30472 29.3401C9.41158 28.8273 9.86403 28.4547 10.3801 28.4547H13.0638C13.0494 28.3846 13.0418 28.3122 13.0418 28.2383C13.0418 27.6517 13.5117 27.1751 14.0884 27.1751H16.6083C17.0957 27.0434 17.511 26.3005 17.6732 25.2626C17.8793 23.9461 17.5996 22.6172 17.0502 22.3008L17.0358 22.2923C15.6148 21.5401 14.5378 20.2436 14.046 18.703C12.9001 18.6183 11.8171 18.3257 10.8212 17.8307C9.62 17.234 8.57034 16.357 7.70182 15.2245C5.94962 12.9371 5.0144 9.69654 5 5.85314C4.99925 5.54363 5.11672 5.2526 5.33195 5.03395C5.5434 4.81837 5.8367 4.69442 6.13681 4.69442H10.2786C10.2445 4.38337 10.3278 4.07156 10.5196 3.81672C10.75 3.51029 11.1001 3.33398 11.4798 3.33398H28.2303C28.61 3.33398 28.9602 3.51029 29.1905 3.81672C29.3815 4.07156 29.4657 4.3826 29.4315 4.69442H33.5733C33.878 4.69442 34.1637 4.81529 34.3789 5.03395C34.5904 5.2503 34.7116 5.54902 34.7101 5.85314C34.6957 9.69654 33.7613 12.9371 32.0068 15.2237C31.1383 16.3563 30.0886 17.2332 28.8874 17.8299C27.8916 18.3249 26.8086 18.6175 25.6626 18.7022C25.17 20.2436 24.0931 21.5401 22.6713 22.2923L22.6577 22.3C22.1082 22.6164 21.8293 23.9453 22.0347 25.2618C22.1969 26.2997 22.613 27.0434 23.0995 27.1743H25.6194C26.1969 27.1743 26.6661 27.6517 26.6661 28.2376C26.6661 28.3115 26.6585 28.3846 26.6441 28.4539H29.3277C29.8438 28.4539 30.2963 28.8258 30.4031 29.3393L31.6521 35.3177C31.7211 35.6487 31.6407 35.9898 31.4308 36.2523C31.2209 36.5156 30.9094 36.6666 30.5759 36.6666H9.13193V36.6673ZM26.319 16.2885C27.8582 15.9806 29.1951 15.1298 30.2122 13.8048C31.4778 12.1549 32.2304 9.81048 32.3986 7.00415H28.823L26.319 16.2885ZM7.31 7.00338C7.47901 9.80971 8.23157 12.1541 9.49722 13.804C10.5135 15.129 11.8504 15.9798 13.3897 16.2878L10.8864 7.00338H7.31Z" class="fill"/>
</svg>

<!-- Pickup -->
<svg viewBox="0 0 40 40" fill="none" xmlns="http://www.w3.org/2000/svg" role="graphics-symbol">
<title>Star Icon</title>
<path d="M13.332 30.0007L19.9987 24.9173L26.6654 30.0007L23.9987 21.7923L30.6654 17.084H22.5404L19.9987 8.62565L17.4154 17.084H9.29037L15.957 21.7923L13.332 30.0007ZM19.9987 36.6673C17.7209 36.6673 15.5681 36.2298 13.5404 35.3548C11.5126 34.4798 9.74175 33.2854 8.22787 31.7715C6.71398 30.2576 5.51953 28.4868 4.64453 26.459C3.76953 24.4312 3.33203 22.2784 3.33203 20.0007C3.33203 17.6951 3.76953 15.5284 4.64453 13.5007C5.51953 11.4729 6.71398 9.70899 8.22787 8.20898C9.74175 6.70898 11.5126 5.52148 13.5404 4.64648C15.5681 3.77148 17.7209 3.33398 19.9987 3.33398C22.3043 3.33398 24.4709 3.77148 26.4987 4.64648C28.5265 5.52148 30.2904 6.70898 31.7904 8.20898C33.2904 9.70899 34.4779 11.4729 35.3529 13.5007C36.2279 15.5284 36.6654 17.6951 36.6654 20.0007C36.6654 22.2784 36.2279 24.4312 35.3529 26.459C34.4779 28.4868 33.2904 30.2576 31.7904 31.7715C30.2904 33.2854 28.5265 34.4798 26.4987 35.3548C24.4709 36.2298 22.3043 36.6673 19.9987 36.6673Z" class="fill"/>
</svg>
