<svg width="800" height="450" viewBox="0 0 800 450" fill="none" xmlns="http://www.w3.org/2000/svg">
<rect width="800" height="450" fill="#192D62"/>
<path d="M332.169 193.964C320.222 219.21 323.839 249.122 341.12 270.804C343.443 270.086 348.054 268.438 354.057 265.151C348.831 257.481 330.194 227.581 332.169 193.964Z" fill="white"/>
<path d="M369.216 217.187C369.09 217.193 368.958 217.202 368.826 217.211C368.481 217.235 368.051 217.262 367.565 217.262C367.43 217.262 367.289 217.262 367.148 217.256C366.593 217.238 365.68 217.238 365.293 217.238C365.182 217.238 365.077 217.238 364.969 217.241C364.798 217.241 364.62 217.247 364.407 217.247C364.164 217.247 363.918 217.244 363.651 217.235C363.627 217.235 363.603 217.235 363.582 217.235C363.513 217.235 363.447 217.238 363.333 217.244C363.309 217.244 363.279 217.244 363.255 217.247C365.497 224.945 368.373 231.438 371.065 236.504C371.071 236.432 371.074 236.39 371.077 236.339C371.089 236.046 371.107 235.729 371.185 235.104C371.239 234.664 371.263 234.467 371.278 234.315C371.305 234.072 371.323 233.899 371.389 233.432C371.41 233.277 371.41 233.268 371.413 233.169C371.422 232.873 371.437 232.535 371.509 231.94C371.554 231.584 371.563 231.447 371.578 231.27C371.596 231.052 371.617 230.777 371.683 230.241C371.719 229.951 371.719 229.874 371.725 229.682C371.731 229.458 371.737 229.15 371.776 228.683C371.801 228.414 371.801 228.366 371.804 228.187C371.804 227.989 371.81 227.717 371.831 227.23C371.843 226.985 371.846 226.886 371.849 226.826V226.796C371.849 226.602 371.849 226.348 371.873 225.549C371.897 224.7 371.954 224.203 372.035 223.746C372.035 223.704 372.032 223.65 372.029 223.581C371.981 222.621 372.014 222.005 372.038 221.557C372.053 221.273 372.062 221.117 372.05 220.887C372.041 220.663 372.029 220.531 372.017 220.39C371.966 219.75 371.96 219.356 372.038 218.414C372.065 218.07 372.077 217.795 372.089 217.504C372.095 217.379 372.098 217.25 372.107 217.116C371.786 217.131 371.494 217.14 371.26 217.14C370.696 217.14 369.585 217.185 369.219 217.202L369.216 217.187Z" fill="white"/>
<path d="M416.123 204.562C415.643 204.185 414.052 204.478 413.917 204.457C413.902 204.672 413.89 204.908 413.875 205.133C414.271 205.282 416.279 206.685 417.216 207.056" fill="white"/>
<path d="M389.882 171.045C390.653 170.237 391.713 169.732 392.895 169.627C393.769 169.146 394.546 169.014 395.135 168.984C395.408 168.931 395.741 168.886 396.134 168.886C396.527 168.886 396.894 168.928 397.266 169.011C397.572 169.059 398.004 169.149 398.518 169.37C398.785 169.484 399.028 169.615 399.25 169.759C399.553 169.807 399.85 169.885 400.132 169.989C400.673 169.711 401.27 169.529 401.9 169.466C402.627 169.086 403.53 168.793 404.587 168.793C405.575 168.793 406.457 169.074 407.177 169.427C408.474 169.466 409.648 169.989 410.527 170.824C410.641 170.824 410.752 170.821 410.858 170.821C413.595 170.821 415.21 171.649 416.14 172.483C416.711 172.956 417.182 173.455 417.551 173.979C418.308 173.985 419.139 173.991 419.989 173.997L420.478 171.458L423.747 171.069C424.35 170.997 424.671 170.949 424.926 170.907C425.296 170.85 425.644 170.797 426.235 170.761L426.7 170.734L427.163 170.803C428.88 171.054 430.302 171.858 431.215 172.98L432.124 172.13L433.616 171.966C433.889 171.936 434.175 171.921 434.487 171.921C435.183 171.921 435.949 171.963 436.699 172.151C437.696 172.241 439.326 172.459 440.661 173.611L441.229 174.098L441.607 174.744C441.811 175.091 441.967 175.441 442.084 175.782C442.97 176.658 443.531 177.848 443.594 179.143C443.606 179.377 443.609 180.977 443.606 183.067C451.365 186.342 459.155 190.57 466.422 196.037C461.478 184.64 453.581 174.332 442.877 166.377C427.49 154.929 409.081 150.389 391.374 152.192C389.449 157.74 388.669 164.098 388.648 170.71C389.065 170.77 389.476 170.877 389.882 171.045Z" fill="white"/>
<path d="M439.024 194.285C439.09 192.738 439.111 179.804 439.09 179.347C439.069 178.889 438.589 178.781 438.589 178.781C438.589 178.781 438.238 178.695 437.844 178.65C437.889 178.213 438.019 177.516 437.712 176.996C437.232 176.583 435.788 176.61 435.746 176.544C435.71 176.491 435.047 176.395 434.48 176.395C434.347 176.395 434.218 176.401 434.107 176.413C433.759 176.739 433.999 176.413 433.669 177.349C433.342 178.285 433.474 178.411 433.474 178.411C433.474 178.411 433.339 178.417 433.102 178.417C432.865 178.417 432.525 178.411 432.12 178.39C431.313 178.345 430.46 178.216 429.497 178.216C428.533 178.216 428.032 177.824 428.032 177.824L427.987 176.691C427.987 176.691 427.942 176.538 427.813 176.06C427.834 175.734 427.245 175.342 426.501 175.232C425.781 175.276 425.736 175.339 424.271 175.516C424.073 176.538 424.163 178.5 424.163 178.5C424.163 178.5 415.422 178.455 414.176 178.414C414.221 178.282 414.284 178.458 414.329 178.043C414.374 177.63 414.149 177.25 414.017 176.837C413.885 176.425 413.165 175.851 413.165 175.851C413.165 175.851 412.678 175.3 410.853 175.3C410.757 175.3 410.655 175.3 410.55 175.306C410.028 176.033 409.905 176.141 409.869 176.141C409.854 176.141 409.854 176.123 409.848 176.123C409.83 176.123 409.764 176.251 409.238 177.196C408.845 176.739 407.599 176.042 407.599 176.042V174.487C407.599 174.167 407.341 173.91 407.02 173.91C407.02 173.91 407.014 173.91 407.011 173.91L405.87 173.925C405.87 173.925 405.168 173.279 404.58 173.279C403.913 173.279 403.355 173.925 403.355 173.925H402.406C402.133 173.925 401.914 174.143 401.914 174.415V175.955L398.943 175.943L398.744 175.931C398.744 175.931 398.744 175.605 398.699 175.519C398.654 175.432 398.678 175.193 398.699 174.974C398.72 174.756 398.744 174.496 398.654 174.322C398.597 174.206 398.567 174.188 398.483 174.188C398.441 174.188 398.384 174.194 398.306 174.194C398.066 174.194 397.781 174.128 397.454 174.128C397.127 174.128 397.169 174.107 397.169 174.107C397.169 174.107 397.169 173.955 397.103 173.847C397.036 173.739 396.883 173.563 396.73 173.5C396.577 173.434 396.544 173.467 396.283 173.401C396.223 173.386 396.169 173.38 396.121 173.38C395.959 173.38 395.839 173.446 395.638 173.464C395.386 173.485 395.286 173.431 395.049 173.566C394.938 173.629 394.635 174.176 394.635 174.176C394.635 174.176 394.608 174.182 394.548 174.182C394.488 174.182 394.395 174.176 394.263 174.155C394.002 174.11 394.065 174.155 393.564 174.11C393.479 174.104 393.41 174.101 393.356 174.101C393.08 174.101 393.125 174.176 393.125 174.176C393.125 174.176 393.104 174.415 393.059 174.807C393.014 175.199 392.972 175.178 392.927 175.549C392.882 175.919 392.84 176.224 392.84 176.224C392.84 176.224 392.273 176.443 391.988 176.571C391.702 176.703 391.42 176.876 391.069 177.137C390.718 177.397 390.718 177.355 390.349 177.549C389.976 177.744 389.736 177.986 389.736 177.986C389.736 177.986 389.691 177.549 389.628 177.334C389.562 177.116 389.475 177.029 389.277 176.637C389.079 176.245 389.079 176.093 388.884 175.788C388.689 175.483 388.623 175.462 388.272 175.264C388.118 175.178 388.028 175.151 387.935 175.151C387.818 175.151 387.698 175.196 387.44 175.22C386.981 175.264 387.134 175.414 386.588 175.611C386.041 175.809 386.107 175.872 385.669 176.003C385.231 176.135 385.21 176.329 385.102 176.655C384.994 176.981 385.123 177.134 385.102 177.373C385.081 177.612 385.234 177.917 385.276 178.264C385.321 178.611 385.648 179.113 385.648 179.113C385.648 179.113 385.387 179.245 384.883 179.266C384.715 179.272 384.576 179.275 384.435 179.275C384.153 179.275 383.856 179.266 383.289 179.266C382.862 179.266 382.643 179.272 382.472 179.272C382.301 179.272 382.175 179.266 381.935 179.245C381.455 179.2 380.974 179.2 380.581 179.179C380.503 179.176 380.419 179.173 380.335 179.173C379.99 179.173 379.594 179.2 379.227 179.2C378.768 179.2 377.937 179.134 377.174 179.113C376.409 179.092 376.454 179.006 376.454 179.006C376.454 179.006 376.475 178.722 376.52 178.569C376.565 178.417 376.52 178.285 376.52 178.091C376.52 177.896 376.52 177.83 376.475 177.678C376.43 177.525 376.277 177.46 376.169 177.307C376.1 177.211 375.995 177.193 375.929 177.193C375.89 177.193 375.863 177.199 375.863 177.199C375.986 177.169 375.718 176.404 375.637 176.323C375.574 176.26 375.112 176.227 375.025 176.203C374.776 176.138 374.5 176.105 374.242 176.105C373.86 176.105 373.509 176.171 373.317 176.287C372.993 176.482 373.161 176.781 372.894 177.134C372.852 177.122 372.804 177.113 372.759 177.113C372.714 177.113 372.672 177.119 372.63 177.134C372.501 177.178 372.456 177.286 372.477 177.504C372.498 177.723 372.477 177.875 372.543 178.399C372.609 178.922 372.588 179.03 372.588 179.03C372.588 179.03 371.822 178.964 371.342 178.943C371.183 178.937 371.072 178.934 370.976 178.934C370.781 178.934 370.631 178.943 370.207 178.943C369.574 178.943 369.682 178.964 369.049 178.964C368.8 178.964 368.553 178.964 368.304 178.964C368.415 178.59 368.142 178.207 368.193 177.821C368.211 177.693 368.226 177.558 368.202 177.43C368.097 176.87 367.638 176.826 367.188 176.826C367.104 176.826 367.023 176.826 366.942 176.826C366.897 176.826 366.851 176.826 366.806 176.826C366.008 176.799 365.522 176.757 364.723 176.703C364.648 176.697 364.57 176.694 364.492 176.694C364.351 176.694 364.213 176.712 364.09 176.772C363.889 176.873 363.76 177.086 363.703 177.304C363.631 177.585 363.649 177.893 363.676 178.177C363.718 178.608 363.52 178.943 363.496 178.979C363.499 178.97 363.496 178.94 363.276 178.94C363.015 178.94 362.664 178.961 362.664 178.961C362.664 178.961 362.445 179.2 362.316 179.373C362.184 179.547 362.055 179.852 361.857 180.223C361.659 180.594 361.659 180.854 361.463 181.311C361.268 181.769 361.376 182.053 361.202 182.684C361.028 183.315 361.157 183.512 361.049 184.123C360.941 184.733 360.983 184.774 360.962 185.408C360.941 186.04 360.917 186.823 360.875 187.367C360.83 187.912 360.809 188.019 360.809 188.348C360.809 188.677 360.83 192.966 360.83 193.51C360.83 194.054 360.851 195.011 360.83 195.514C360.809 196.013 360.917 196.862 360.938 197.559C360.959 198.256 360.983 198.277 361.004 198.998C361.025 199.715 361.049 199.979 361.049 200.696C361.049 201.414 361.049 201.546 361.004 202.135C360.959 202.724 360.896 203.244 360.896 203.463C360.896 203.681 360.788 204.357 360.743 204.704C360.698 205.051 360.698 205.466 360.611 206.011C360.524 206.555 360.632 206.534 360.656 207.165C360.677 207.796 360.569 207.969 360.59 208.559C360.611 209.148 360.569 209.3 360.635 209.907C360.701 210.517 360.701 210.649 360.767 211.367C360.833 212.085 360.962 211.911 361.094 212.129C361.226 212.348 361.355 212.587 362.079 212.719C362.361 212.769 362.568 212.784 362.763 212.784C363.018 212.784 363.246 212.76 363.583 212.76C363.646 212.76 363.715 212.76 363.784 212.763C364.033 212.769 364.234 212.772 364.408 212.772C364.756 212.772 364.999 212.763 365.291 212.763C365.729 212.763 366.668 212.763 367.302 212.784C367.389 212.787 367.476 212.787 367.563 212.787C368.094 212.787 368.577 212.736 369.028 212.719C369.553 212.698 370.622 212.653 371.258 212.653C371.894 212.653 373.203 212.566 373.947 212.455C374.692 212.345 374.755 212.369 375.193 212.261C375.631 212.153 375.607 212.087 375.893 211.914C376.178 211.741 376.373 211.63 376.484 211.522C376.592 211.415 376.856 211.262 377.117 210.912C377.378 210.565 377.336 210.607 377.402 210.323C377.468 210.039 377.534 209.779 377.577 209.495C377.622 209.211 377.664 208.995 377.685 208.69C377.706 208.385 377.772 208.212 377.838 207.886C377.904 207.56 377.925 207.539 378.036 207.234C378.144 206.929 378.144 206.95 378.297 206.71C378.45 206.471 378.45 206.579 378.756 206.426C379.062 206.274 379.281 206.232 379.87 206.079C380.461 205.927 380.524 205.948 381.07 205.709C381.617 205.469 381.791 205.251 382.184 204.904C382.577 204.554 382.469 204.533 382.73 204.034C382.992 203.534 382.884 203.555 383.016 203.032C383.148 202.509 383.103 202.533 383.124 202.162C383.145 201.791 383.124 201.42 383.124 201.42C383.124 201.42 383.124 201.42 383.13 201.42C383.151 201.42 383.25 201.408 383.691 201.288C384.258 201.136 384.564 201.157 385.177 201.049C385.789 200.942 385.876 200.897 386.401 200.765C386.927 200.634 386.729 200.699 387.035 200.568C387.341 200.436 387.689 200.329 387.689 200.329C387.689 200.329 387.689 200.305 387.707 200.305C387.728 200.305 387.77 200.334 387.863 200.46C388.037 200.699 388.148 200.786 388.323 201.202C388.497 201.617 388.455 201.725 388.629 202.159C388.803 202.595 388.737 202.876 388.803 203.355C388.869 203.833 388.758 203.833 388.737 204.53C388.716 205.227 388.737 205.359 388.629 205.64C388.521 205.924 388.497 206.229 388.344 206.531C388.19 206.836 388.169 206.857 388.082 207.162C387.995 207.467 388.037 207.467 388.037 207.64C388.037 207.814 388.103 208.597 388.103 208.597C388.103 208.597 387.512 208.771 387.251 208.837C386.99 208.903 387.032 208.968 386.573 209.055C386.266 209.113 385.887 209.208 385.435 209.339C384.757 209.537 384.802 209.599 383.949 209.862C383.097 210.123 383.403 210.123 382.769 210.407C382.136 210.691 382.223 210.625 381.503 210.885C380.782 211.145 380.956 211.125 380.191 211.45C379.426 211.776 379.885 211.669 379.317 211.995C378.75 212.321 378.924 212.279 378.663 212.452C378.402 212.626 378.117 212.931 377.79 213.323C377.462 213.714 377.351 214.193 377.045 214.914C376.739 215.631 376.826 215.61 376.694 216.373C376.562 217.136 376.607 217.68 376.52 218.768C376.433 219.857 376.499 219.705 376.541 220.685C376.586 221.666 376.454 222.013 376.52 223.365C376.586 224.714 376.412 224.062 376.367 225.674C376.322 227.286 376.367 226.478 376.322 227.438C376.277 228.395 376.322 228.308 376.256 229.071C376.19 229.834 376.256 229.899 376.148 230.791C376.04 231.685 376.082 231.595 375.974 232.489C375.866 233.383 375.953 233.273 375.842 234.056C375.733 234.84 375.776 234.622 375.643 235.668C375.511 236.712 375.622 236.41 375.469 237.498C375.316 238.587 375.25 238.653 375.01 239.96C374.77 241.267 374.749 241.222 374.638 241.877C374.53 242.529 374.353 242.792 374.113 243.617C373.872 244.446 373.893 244.359 373.698 244.924C373.5 245.489 373.458 245.729 373.173 246.578C372.888 247.427 372.846 247.448 372.519 248.211C372.191 248.973 372.167 249.147 371.84 249.844C371.513 250.54 371.294 251.04 371.075 251.584C370.856 252.128 370.114 253.588 369.436 254.697C368.758 255.807 369.064 255.197 368.43 256.025C367.797 256.854 367.95 256.462 367.293 257.027C366.638 257.592 366.638 257.637 365.786 258.226C364.933 258.815 364.759 259.096 364.039 259.707C363.318 260.317 363.078 260.643 362.553 261.166C362.028 261.689 361.746 261.97 361.175 262.604C360.608 263.235 360.323 263.953 360.017 264.435C359.71 264.913 359.491 265.589 359.317 266.068C359.143 266.546 358.945 267.656 358.924 268.245C358.903 268.834 358.903 269.007 359.098 269.725C359.296 270.443 359.404 270.138 359.819 270.616C360.233 271.095 360.41 271.095 361.109 271.618C361.809 272.141 361.635 271.923 362.487 272.228C363.34 272.533 363.754 272.88 364.933 273.119C366.113 273.359 369.064 274.187 369.916 274.339C370.769 274.492 371.729 274.752 372.627 274.929C373.524 275.105 375.184 275.32 375.797 275.407C376.409 275.494 378.639 275.778 379.119 275.778C379.6 275.778 384.516 276.236 385.48 276.277C386.441 276.322 386.681 276.322 387.533 276.385C388.136 276.43 388.434 276.478 388.887 276.478C389.076 276.478 389.289 276.469 389.565 276.451C390.505 276.385 390.811 276.298 391.642 276.146C392.474 275.993 393.173 275.841 393.588 275.667C394.002 275.494 393.939 275.494 394.287 275.144C394.638 274.797 394.572 274.773 394.659 274.555C394.746 274.337 394.704 273.813 394.68 273.532C394.659 273.248 394.593 273.185 394.572 272.575C394.551 271.965 394.44 271.944 394.353 271.531C394.266 271.119 393.894 269.898 393.699 269.441C393.44 269.315 393.083 269.145 392.93 268.768C392.813 268.484 392.972 268.026 392.969 267.667C392.873 267.44 392.786 267.237 392.717 267.087C392.456 266.522 392.432 266.543 392.303 266.13C392.171 265.718 392.042 265.236 391.976 264.782C391.91 264.324 391.735 263.759 391.648 263.062C391.561 262.365 391.45 261.8 391.342 261.103C391.234 260.406 391.102 260.341 390.862 259.689C390.622 259.037 390.601 259.099 390.361 258.468C390.121 257.837 390.055 257.751 389.88 257.293C389.706 256.836 389.595 256.489 389.442 256.118C389.289 255.747 389.136 255.334 388.983 254.877C388.83 254.419 388.569 253.767 388.479 253.265C388.392 252.765 388.326 252.568 388.305 251.764C388.284 250.959 388.326 250.72 388.413 249.912C388.5 249.108 388.5 248.758 388.566 247.995C388.632 247.233 388.566 246.862 388.632 246.231C388.698 245.6 388.632 245.513 388.677 244.664C388.722 243.815 388.743 243.444 388.809 242.618C388.875 241.79 388.83 241.596 388.875 240.788C388.92 239.984 388.854 239.526 388.854 238.632C388.854 237.738 388.875 237.412 388.875 236.847C388.614 236.604 388.389 236.224 388.431 235.866C388.458 235.629 389.001 234.873 389.049 234.774C389.07 234.056 389.67 233.665 389.986 233.665C389.995 233.665 390.004 233.665 390.01 233.665C390.316 233.685 390.469 234.556 390.469 235.19C390.775 235.492 390.91 235.722 390.889 235.952C390.862 236.242 390.742 236.634 390.358 236.867C390.337 237.519 390.445 239.72 390.49 240.83C390.535 241.94 390.511 241.898 390.49 242.965C390.469 244.033 390.511 243.946 390.49 244.643C390.469 245.34 390.445 245.645 390.445 246.581C390.445 247.517 390.358 247.451 390.271 248.127C390.184 248.803 390.118 249.084 390.031 249.826C389.943 250.567 390.01 250.415 390.01 251.174C390.01 251.934 390.076 252.045 390.184 252.741C390.292 253.438 390.403 253.896 390.685 254.787C390.97 255.681 390.817 255.352 391.099 256.049C391.384 256.746 391.753 257.703 391.931 258.205C392.105 258.705 392.237 259.12 392.369 259.554C392.501 259.991 392.654 260.84 392.807 261.513C392.96 262.189 393.005 262.927 393.068 263.385C393.134 263.843 393.416 265.039 393.57 265.454C393.723 265.867 394.116 266.609 394.401 267.132C394.776 267.291 395.181 267.551 395.307 267.898C395.449 268.281 395.268 268.708 395.253 269.091C395.362 269.244 395.692 269.854 395.887 270.266C396.082 270.679 396.172 271.071 396.259 271.4C396.346 271.726 396.544 272.27 396.631 272.793C396.718 273.317 396.784 273.816 396.784 273.99C396.784 274.163 396.805 274.794 396.871 275.165C396.937 275.536 398.051 276.666 398.949 276.777C399.33 276.822 399.597 276.837 399.822 276.837C400.125 276.837 400.356 276.81 400.696 276.798C401.287 276.777 402.247 276.732 402.749 276.69C403.25 276.645 405.153 276.669 405.435 276.645C405.72 276.624 407.314 276.514 407.512 276.514C407.71 276.514 408.89 276.469 409.043 276.448C409.196 276.427 410.703 276.361 411.075 276.34C411.448 276.319 413.041 276.233 413.48 276.209C413.918 276.188 416.866 275.904 418.243 275.796C419.621 275.688 421.236 275.47 421.848 275.383C422.461 275.296 424.799 274.884 425.586 274.773C426.372 274.665 430.523 273.75 430.875 273.685C431.223 273.619 432.688 273.272 433.366 273.009C434.044 272.748 435.704 272.138 436.076 271.92C436.449 271.702 436.71 271.573 436.995 271.331C437.28 271.092 437.826 270.613 438.001 270.374C438.175 270.135 438.721 269.199 438.832 268.807C438.94 268.415 438.853 268.176 438.853 267.739C438.853 267.303 438.766 266.935 438.7 266.543C438.634 266.151 438.481 265.694 438.307 265.236C438.133 264.779 438.001 264.626 437.781 264.213C437.562 263.801 437.19 263.319 436.863 262.886C436.536 262.449 436.097 262.036 435.704 261.624C435.311 261.211 434.765 260.861 434.504 260.601C434.242 260.341 432.405 258.902 431.991 258.489C431.577 258.077 429.608 256.267 429.215 255.834C428.821 255.397 427.029 252.786 426.678 252.11C426.327 251.435 425.258 249.105 424.973 248.387C424.688 247.669 423.574 243.662 423.334 242.705C423.094 241.748 422.197 236.455 422.134 235.955C422.068 235.456 421.806 232.603 421.782 232.232C421.761 231.861 421.476 228.53 421.455 227.659C421.434 226.789 421.323 226.092 421.323 225.677C421.323 225.261 421.257 217.599 421.236 216.902C421.215 216.206 421.104 215.987 421.038 215.575C420.972 215.162 420.624 214.746 420.36 214.136C420.098 213.526 419.921 213.526 419.507 213.047C419.093 212.569 418.589 212.351 418.174 212.004C417.76 211.654 416.427 211.023 415.923 210.784C415.422 210.544 412.645 209.477 412.12 209.282C411.595 209.085 409.98 208.606 409.367 208.388C409.367 208.257 409.346 207.757 409.346 207.539C409.346 207.321 409.325 206.516 409.325 206.124C409.325 205.733 409.433 203.597 409.523 203.032C409.611 202.467 409.977 202.443 410.109 202.204C410.241 201.964 410.61 201.399 410.787 200.831C410.961 200.266 410.748 200.155 410.727 199.763C410.706 199.372 410.466 199.111 410.268 198.696C410.286 198.696 410.304 198.693 410.328 198.693C410.721 198.693 411.982 199.037 412.498 199.285C413.044 199.545 414.335 200.047 414.683 200.047C415.032 200.047 418.267 200.666 418.508 200.777C418.748 200.885 419.381 200.983 419.6 201.42C419.819 201.857 420.101 202.879 420.167 203.292C420.234 203.705 421.521 208.191 421.653 208.867C421.785 209.543 422.134 210.825 422.245 211.131C422.353 211.436 422.923 212.067 423.358 212.306C423.797 212.545 423.86 212.653 425.216 212.937C426.57 213.221 433.915 214.112 434.197 214.133C434.441 214.151 435.866 214.202 436.44 214.202C436.533 214.202 436.605 214.202 436.644 214.199C436.929 214.178 437.43 214.178 438.217 214.046C438.349 213.741 438.523 213.218 438.589 212.5C438.655 211.782 438.721 211.128 438.721 210.781C438.721 210.434 438.547 208.496 438.523 207.144C438.502 205.795 438.631 204.641 438.697 203.508C438.763 202.374 438.958 195.843 439.024 194.297V194.285ZM396.067 204.82C395.53 205.547 394.626 206.289 394.626 206.289C394.626 206.289 394.182 205.38 394.098 204.964C394.005 204.491 393.975 203.92 393.975 203.92C393.975 203.92 393.855 202.222 394.461 201.94C394.569 201.89 394.704 201.869 394.851 201.869C395.629 201.869 396.82 202.44 396.82 202.44C396.82 202.44 396.628 204.064 396.067 204.823V204.82ZM401.959 196.372C401.863 196.372 401.839 196.387 401.839 196.387C401.839 196.387 401.743 195.768 401.626 195.532C401.506 195.295 401.434 195.295 401.245 195.152C401.053 195.008 400.84 194.796 400.578 194.7C400.317 194.605 400.077 194.581 399.648 194.533C399.24 194.488 399.306 194.485 398.997 194.485C398.807 194.485 398.621 194.509 398.438 194.554C397.724 194.733 397.967 194.679 397.622 194.936C397.337 195.152 397.337 195.245 397.048 195.672C396.901 195.89 396.793 196.166 396.721 196.381C396.661 196.56 396.493 196.68 396.31 196.68C396.286 196.68 396.259 196.68 396.235 196.674C396.139 196.656 396.037 196.638 395.953 196.623C395.839 196.602 395.587 196.578 395.338 196.557C395.043 196.533 394.89 196.196 395.067 195.959C395.136 195.867 395.202 195.786 395.25 195.738C395.419 195.57 395.491 195.433 395.824 194.934C396.157 194.434 396.088 194.395 396.349 194.039C396.61 193.683 396.763 193.483 397.024 193.151C397.286 192.819 397.574 192.571 397.859 192.454C397.988 192.4 398.147 192.386 398.318 192.386C398.522 192.386 398.741 192.406 398.943 192.406C399.312 192.406 399.504 192.311 399.909 192.287C399.921 192.287 399.933 192.287 399.948 192.287C400.344 192.287 400.78 192.634 401.104 192.723C401.437 192.819 402.193 193.525 402.482 193.74C402.767 193.956 402.767 194.32 403.055 194.628C403.34 194.936 403.364 195.032 403.604 195.316C403.841 195.6 403.817 195.792 403.985 196.148C404.153 196.504 403.634 196.647 403.634 196.647C403.634 196.647 403.418 196.599 403.109 196.551C402.8 196.504 402.728 196.48 402.322 196.408C402.148 196.378 402.037 196.369 401.965 196.369L401.959 196.372ZM404.88 205.631C404.697 206.369 404.415 207.054 404.415 207.054C404.415 207.054 403.598 205.909 403.124 204.988C402.737 204.24 402.674 203.681 402.674 203.681C402.674 203.681 402.644 203.146 402.767 202.706C402.869 202.344 403.127 202.066 403.127 202.066C403.127 202.066 404.012 202.09 404.487 202.586C405.009 203.131 405.129 204.156 405.129 204.156C405.129 204.156 405.054 204.922 404.877 205.631H404.88Z" fill="#C9DBFF"/>
<path d="M426.458 233.882C426.521 234.543 426.581 235.159 426.605 235.35C426.698 236.008 427.523 240.835 427.712 241.601C427.964 242.602 428.949 246.095 429.18 246.75C429.411 247.322 430.369 249.418 430.675 250.016C430.942 250.489 432.182 252.31 432.596 252.848C432.875 253.129 433.68 253.886 434.127 254.305C434.643 254.789 434.955 255.082 435.15 255.276C435.346 255.453 435.994 255.982 436.348 256.269C437.023 256.82 437.351 257.089 437.6 257.325C437.642 257.358 437.687 257.394 437.735 257.433C437.981 257.624 438.323 257.893 438.68 258.231C441.598 253.943 444.429 249.227 447.1 244.038C439.308 239.489 432.419 236.223 426.458 233.885V233.882Z" fill="white"/>
<path d="M362.063 172.761C362.801 172.388 363.621 172.199 364.497 172.199C364.731 172.199 364.929 172.211 365.034 172.22L365.5 172.253C366.022 172.289 366.403 172.316 366.946 172.337H367.025C367.079 172.337 367.136 172.337 367.193 172.337C368.393 172.337 369.375 172.618 370.158 173.069C370.44 172.806 370.729 172.6 370.993 172.441C372.13 171.757 373.391 171.613 374.247 171.613C374.802 171.613 375.348 171.67 375.87 171.784C376.495 171.864 377.759 172.077 378.83 173.147C379.205 173.521 379.548 174.029 379.815 174.61C379.836 174.637 379.86 174.66 379.884 174.69C380.028 174.684 380.184 174.681 380.343 174.681C380.52 174.681 380.679 174.684 380.841 174.693C380.904 174.696 380.967 174.699 381.033 174.702C381.76 172.953 383.075 172.142 384.161 171.769C384.299 171.7 384.455 171.625 384.641 171.55C384.614 164.971 385.284 158.55 387.004 152.781C378.767 154.115 370.759 156.837 363.35 160.889C362.063 165.393 361.12 169.771 360.466 174.02C360.907 173.503 361.447 173.072 362.063 172.764V172.761Z" fill="white"/>
<path d="M441.351 261.414C441.495 261.635 441.636 261.866 441.765 262.108C441.804 262.183 441.84 262.242 441.87 262.296C442.026 262.568 442.266 262.981 442.512 263.621C442.836 264.47 443.031 265.14 443.14 265.786C443.149 265.846 443.161 265.909 443.173 265.969C443.245 266.363 443.353 266.959 443.356 267.691C443.356 267.712 443.359 267.733 443.362 267.754C443.392 268.149 443.455 268.965 443.17 269.988C442.782 271.382 441.651 272.982 441.642 272.994C441.483 273.209 441.113 273.717 439.904 274.737C439.366 275.192 438.886 275.464 438.535 275.667C438.481 275.7 438.421 275.733 438.358 275.769C437.827 276.08 437.139 276.361 435.464 276.995C435.281 277.064 435.116 277.127 434.99 277.174C433.924 277.587 432.138 277.991 431.718 278.072C431.586 278.099 431.223 278.176 430.752 278.278C428.68 278.724 427.369 278.999 426.621 279.13C416.515 289.182 406.783 295.166 399.936 298.554C422.002 298.207 443.674 288.045 457.884 269.058C460.949 264.964 463.515 260.657 465.604 256.207C460.273 252.332 455.233 248.967 450.515 246.078C447.6 251.716 444.517 256.809 441.351 261.411V261.414Z" fill="white"/>
<path d="M443.1 212.606L443.073 212.896C442.98 213.925 442.731 214.93 442.356 215.803L441.386 218.058L438.958 218.462C438.09 218.605 437.442 218.638 437.094 218.656C437.052 218.656 437.013 218.659 436.989 218.662C436.827 218.674 436.665 218.68 436.439 218.68C435.788 218.68 434.251 218.629 433.852 218.596C433.585 218.576 428.518 217.968 425.75 217.559C425.781 219.691 425.823 225.014 425.826 225.621C425.829 225.693 425.844 225.855 425.856 225.977C425.892 226.369 425.94 226.907 425.955 227.532C425.961 227.825 426.021 228.654 426.084 229.461C436.854 233.49 450.604 240.47 467.225 252.474C469.926 245.766 471.571 238.789 472.199 231.767C463.082 222.652 453.009 216.398 443.142 212.119C443.127 212.274 443.112 212.436 443.097 212.606H443.1Z" fill="white"/>
<path d="M469.149 203.356C461.291 196.483 452.466 191.333 443.593 187.467C443.581 190.699 443.557 193.792 443.527 194.473C443.5 195.096 443.452 196.609 443.398 198.209C443.302 201.125 443.236 203.089 443.197 203.753C443.179 204.088 443.152 204.426 443.128 204.77C443.071 205.548 443.017 206.283 443.029 207.058C443.035 207.453 443.059 207.928 443.086 208.395C452.961 212.629 463.11 218.748 472.451 227.57C472.709 219.373 471.596 211.182 469.149 203.356Z" fill="white"/>
<path d="M357.824 259.595C358.475 258.871 358.829 258.518 359.37 257.98C359.499 257.851 359.607 257.737 359.712 257.627C360.036 257.283 360.441 256.852 361.129 256.272C361.3 256.128 361.423 256.012 361.579 255.865C361.945 255.521 362.404 255.091 363.227 254.522C363.68 254.208 363.701 254.191 363.974 253.951C364.076 253.862 364.196 253.754 364.349 253.622C364.587 253.419 364.794 253.257 364.983 253.126C365.172 252.887 365.325 252.707 365.469 252.555C365.502 252.504 365.541 252.438 365.592 252.354C366.183 251.385 366.784 250.18 366.898 249.905C367.159 249.256 367.411 248.682 367.765 247.925C367.882 247.677 367.927 247.563 368.015 247.336C368.102 247.115 368.207 246.837 368.384 246.427C368.48 246.203 368.555 246.035 368.618 245.895C368.747 245.608 368.765 245.563 368.906 245.144C369.029 244.776 369.098 244.549 369.164 244.328C369.242 244.07 369.32 243.807 369.449 243.439L369.527 243.215C369.591 243.032 369.68 242.744 369.795 242.351C366.196 236.256 361.816 227.329 358.817 216.135C358.358 215.815 357.953 215.427 357.602 214.963C356.464 213.722 356.332 212.278 356.284 211.754C356.257 211.446 356.239 211.24 356.224 211.063C356.203 210.821 356.194 210.678 356.158 210.37C356.089 209.736 356.092 209.332 356.095 209.039C356.095 208.913 356.095 208.832 356.092 208.707C356.068 208.085 356.119 207.639 356.149 207.373C356.149 207.349 356.155 207.328 356.158 207.304C356.08 206.784 356.026 206.183 356.17 205.286C356.194 205.142 356.203 204.989 356.218 204.798C356.233 204.604 356.248 204.382 356.278 204.131C356.287 204.059 356.299 203.976 356.311 203.886C354.639 192.148 354.78 178.636 358.451 163.794C351.436 168.376 345.091 174.231 339.787 181.319C338.892 182.515 338.052 183.732 337.241 184.962C331.097 218.74 350.004 251.565 356.473 261.553C356.761 261.024 357.181 260.312 357.833 259.589L357.824 259.595Z" fill="white"/>
<path d="M418.601 280.257C417.959 280.308 416.923 280.4 416.011 280.484C414.57 280.616 413.997 280.664 413.706 280.679C413.27 280.7 411.692 280.786 411.34 280.807C411.205 280.816 410.935 280.828 410.629 280.843C410.278 280.861 409.623 280.891 409.464 280.903C409.569 280.894 409.644 280.885 409.68 280.879C409.095 280.963 407.531 280.99 407.516 280.99C407.519 280.99 407.522 280.99 407.528 280.99C407.552 280.99 407.585 280.99 407.627 280.99C407.378 280.999 406.081 281.085 405.787 281.109C405.517 281.13 405.214 281.133 404.49 281.136C404.088 281.136 403.347 281.142 403.116 281.154C402.377 281.217 401.114 281.265 400.864 281.274C400.771 281.277 400.687 281.283 400.609 281.289C400.402 281.301 400.147 281.319 399.826 281.319C399.385 281.319 398.934 281.289 398.406 281.226C397.082 281.064 395.972 280.46 395.17 279.868C394.408 280.164 393.531 280.359 392.469 280.553C392.319 280.58 392.187 280.607 392.063 280.631C391.472 280.744 390.914 280.852 389.89 280.924C389.518 280.951 389.203 280.963 388.897 280.963C388.38 280.963 387.978 280.927 387.627 280.894C387.501 280.882 387.363 280.87 387.198 280.858C386.639 280.816 386.411 280.804 385.91 280.786C385.733 280.78 385.532 280.771 385.283 280.759C385.073 280.75 384.757 280.729 384.346 280.697C375.944 285.664 368.38 288.26 363.46 289.567C372.093 294.289 381.371 297.121 390.761 298.147C394.81 296.702 406.514 291.839 419.574 280.182C419.25 280.215 418.923 280.245 418.604 280.269L418.601 280.257Z" fill="white"/>
<path d="M375.167 279.836C375.056 279.822 374.911 279.801 374.74 279.777C373.897 279.66 372.621 279.484 371.772 279.319C371.279 279.223 370.805 279.113 370.349 279.008C369.899 278.903 369.475 278.805 369.13 278.745C368.56 278.643 367.722 278.428 366.399 278.087C365.558 277.869 364.514 277.6 364.042 277.504C362.764 277.244 361.941 276.87 361.398 276.622C361.2 276.532 361.083 276.478 360.972 276.439C360.885 276.409 360.867 276.403 360.792 276.385C359.786 276.128 359.18 275.769 358.414 275.198C358.273 275.093 358.183 275.034 358.057 274.95C357.649 274.681 357.21 274.376 356.709 273.858C355.442 272.928 354.992 271.741 354.761 270.895C354.614 270.356 354.527 269.932 354.476 269.534C350.033 271.849 346.386 273.272 343.901 274.107C347.131 277.701 350.766 281.033 354.797 284.029C356.025 284.941 357.28 285.797 358.543 286.622C361.404 286.09 368.494 284.445 377.178 280.094C376.16 279.977 375.179 279.839 375.161 279.839L375.167 279.836Z" fill="white"/>
<path d="M541.347 237.345V220.183H544.618V237.345H541.347ZM537.978 223.064V220.183H544.374V223.064H537.978ZM555.755 237.589C554.583 237.589 553.525 237.329 552.581 236.808C551.654 236.271 550.913 235.555 550.36 234.66C549.823 233.748 549.554 232.739 549.554 231.633C549.554 230.119 550.075 228.597 551.117 227.067L555.877 220.183H559.686L554.486 227.458L553.265 227.8C553.444 227.425 553.656 227.1 553.9 226.823C554.16 226.547 554.494 226.335 554.901 226.189C555.308 226.042 555.82 225.969 556.439 225.969C557.464 225.969 558.392 226.213 559.222 226.701C560.052 227.173 560.719 227.832 561.224 228.679C561.728 229.509 561.98 230.469 561.98 231.559C561.98 232.682 561.704 233.699 561.15 234.611C560.597 235.522 559.848 236.247 558.904 236.784C557.96 237.321 556.911 237.589 555.755 237.589ZM555.755 234.611C556.325 234.611 556.829 234.481 557.269 234.22C557.708 233.944 558.058 233.577 558.318 233.122C558.579 232.65 558.709 232.121 558.709 231.535C558.709 230.949 558.579 230.428 558.318 229.973C558.058 229.501 557.708 229.134 557.269 228.874C556.829 228.614 556.325 228.483 555.755 228.483C555.185 228.483 554.673 228.622 554.217 228.898C553.778 229.159 553.428 229.517 553.167 229.973C552.923 230.428 552.801 230.949 552.801 231.535C552.801 232.121 552.923 232.65 553.167 233.122C553.428 233.577 553.778 233.944 554.217 234.22C554.673 234.481 555.185 234.611 555.755 234.611Z" fill="#C9DBFF"/>
<path d="M537.417 245.06H563.417" stroke="#B0CAFF" stroke-width="2.57249"/>
<path d="M236.635 235.441L243.104 228.679C243.56 228.19 243.926 227.759 244.203 227.385C244.496 226.994 244.707 226.628 244.837 226.286C244.968 225.928 245.033 225.57 245.033 225.212C245.033 224.496 244.797 223.934 244.325 223.528C243.869 223.121 243.275 222.917 242.543 222.917C241.794 222.917 241.127 223.113 240.541 223.503C239.971 223.894 239.434 224.512 238.93 225.359L236.659 223.43C237.343 222.274 238.189 221.404 239.198 220.818C240.223 220.216 241.395 219.915 242.713 219.915C243.836 219.915 244.813 220.134 245.643 220.574C246.489 221.013 247.14 221.623 247.596 222.405C248.052 223.186 248.279 224.097 248.279 225.139C248.279 225.839 248.19 226.473 248.011 227.043C247.848 227.613 247.563 228.182 247.157 228.752C246.766 229.305 246.221 229.932 245.521 230.632L240.809 235.441H236.635ZM236.635 237.345V235.441L239.467 234.464H248.646V237.345H236.635ZM259.552 237.589C258.201 237.589 256.98 237.223 255.89 236.491C254.799 235.758 253.929 234.725 253.278 233.39C252.643 232.056 252.325 230.501 252.325 228.727C252.325 226.954 252.643 225.407 253.278 224.089C253.912 222.771 254.767 221.745 255.841 221.013C256.931 220.281 258.144 219.915 259.478 219.915C260.845 219.915 262.066 220.281 263.14 221.013C264.231 221.745 265.093 222.779 265.728 224.114C266.363 225.432 266.68 226.986 266.68 228.776C266.68 230.55 266.363 232.105 265.728 233.439C265.093 234.757 264.239 235.783 263.165 236.515C262.09 237.231 260.886 237.589 259.552 237.589ZM259.503 234.586C260.284 234.586 260.959 234.367 261.529 233.927C262.099 233.488 262.538 232.837 262.847 231.974C263.173 231.112 263.336 230.038 263.336 228.752C263.336 227.466 263.173 226.392 262.847 225.529C262.538 224.667 262.09 224.024 261.505 223.601C260.935 223.161 260.26 222.942 259.478 222.942C258.713 222.942 258.046 223.161 257.477 223.601C256.907 224.024 256.459 224.667 256.134 225.529C255.825 226.376 255.67 227.442 255.67 228.727C255.67 230.029 255.825 231.112 256.134 231.974C256.459 232.837 256.907 233.488 257.477 233.927C258.046 234.367 258.722 234.586 259.503 234.586Z" fill="#C9DBFF"/>
<path d="M236 245.06H268" stroke="#B0CAFF" stroke-width="2.57249"/>
<path d="M289.069 158.44L286.034 156.262L288.322 153.063C288.605 152.667 288.785 152.254 288.861 151.825C288.934 151.37 288.881 150.929 288.703 150.502C288.525 150.074 288.2 149.691 287.728 149.353C287.257 149.015 286.79 148.83 286.329 148.799C285.853 148.756 285.419 148.848 285.027 149.074C284.631 149.274 284.291 149.572 284.008 149.968L281.72 153.167L278.684 150.989L281.479 147.082C282.219 146.046 283.102 145.262 284.128 144.73C285.138 144.187 286.205 143.95 287.33 144.019C288.439 144.078 289.542 144.5 290.637 145.286C291.702 146.05 292.456 146.96 292.899 148.015C293.326 149.059 293.446 150.147 293.257 151.28C293.069 152.413 292.605 153.497 291.864 154.533L289.069 158.44ZM292.546 165.844L276.364 154.234L279.289 150.144L295.472 161.754L292.546 165.844Z" fill="white"/>
<path d="M305.416 147.86L291.76 133.363L295.414 129.909L309.071 144.406L305.416 147.86ZM314.277 139.486L300.621 124.989L304.275 121.536L317.932 136.033L314.277 139.486ZM301.951 140.003L299.062 136.936L307.168 129.276L310.057 132.343L301.951 140.003Z" fill="white"/>
<path d="M324.424 130.767L313.196 114.317L317.345 111.476L328.573 127.926L324.424 130.767Z" fill="white"/>
<path d="M335.733 122.908L326.974 105.021L331.487 102.804L340.246 120.691L335.733 122.908ZM339.313 121.149L337.41 117.264L346.033 113.028L347.936 116.913L339.313 121.149Z" fill="white"/>
<path d="M352.569 114.28L354.662 93.0149L359.342 91.7063L372.048 108.834L366.989 110.249L356.948 95.6717L358.706 95.1801L357.52 112.896L352.569 114.28ZM356.152 109.662L355.081 105.819L365.659 102.862L366.73 106.704L356.152 109.662Z" fill="white"/>
<path d="M381.045 107.143L380.762 102.826L385.527 102.513C386.648 102.439 387.606 102.16 388.4 101.676C389.213 101.191 389.816 100.513 390.209 99.643C390.601 98.7539 390.757 97.702 390.678 96.4874C390.599 95.2914 390.3 94.2976 389.778 93.5061C389.275 92.6947 388.598 92.1012 387.747 91.7254C386.897 91.3497 385.911 91.1987 384.79 91.2725L379.801 91.6007L379.517 87.284L384.535 86.9539C386.067 86.8531 387.494 87.0032 388.815 87.4043C390.135 87.7866 391.301 88.3856 392.311 89.2012C393.322 90.0168 394.129 91.0147 394.732 92.195C395.353 93.374 395.712 94.7017 395.809 96.178C395.907 97.6729 395.725 99.0456 395.263 100.296C394.819 101.545 394.15 102.64 393.254 103.581C392.359 104.522 391.282 105.278 390.025 105.849C388.785 106.399 387.408 106.724 385.894 106.824L381.045 107.143ZM377.653 107.366L376.35 87.4923L381.367 87.1623L382.671 107.036L377.653 107.366Z" fill="white"/>
<path d="M403.843 105.992L406.44 86.2457L411.425 86.9036L408.828 106.65L403.843 105.992ZM407.797 106.514L408.351 102.308L419.045 103.72L418.492 107.925L407.797 106.514ZM408.852 98.4929L409.391 94.3988L419.083 95.6777L418.544 99.7718L408.852 98.4929ZM409.842 90.9731L410.395 86.7676L420.922 88.1567L420.369 92.3623L409.842 90.9731Z" fill="white"/>
<path d="M426.4 109.237L432.467 90.2677L437.255 91.8041L431.187 110.774L426.4 109.237ZM430.198 110.456L431.516 106.336L440.663 109.271L439.345 113.392L430.198 110.456Z" fill="white"/>
<path d="M452.801 111.148L454.543 107.842L458.02 109.68C458.45 109.908 458.883 110.031 459.318 110.049C459.778 110.059 460.208 109.947 460.606 109.713C461.005 109.479 461.339 109.105 461.61 108.591C461.881 108.078 462 107.59 461.968 107.128C461.945 106.65 461.795 106.232 461.518 105.874C461.266 105.508 460.925 105.211 460.495 104.983L457.018 103.145L458.76 99.84L463.006 102.085C464.132 102.68 465.028 103.45 465.694 104.395C466.369 105.324 466.749 106.351 466.834 107.476C466.927 108.584 466.659 109.735 466.031 110.928C465.419 112.088 464.622 112.958 463.638 113.54C462.663 114.105 461.602 114.37 460.456 114.336C459.31 114.302 458.174 113.988 457.048 113.392L452.801 111.148ZM445.948 115.596L455.233 97.9758L459.678 100.326L450.394 117.946L445.948 115.596Z" fill="white"/>
<path d="M465.078 125.624L477.532 110.082L481.451 113.232L468.997 128.775L465.078 125.624ZM474.58 133.263L487.034 117.72L490.954 120.871L478.499 136.413L474.58 133.263ZM472.37 121.106L475.005 117.818L483.697 124.805L481.062 128.093L472.37 121.106Z" fill="white"/>
<path d="M484.878 142.353L499.648 128.993L503.016 132.727L488.245 146.087L484.878 142.353Z" fill="white"/>
<path d="M493.436 151.046L514.327 146.632L516.978 150.705L504.468 167.997L501.603 163.595L512.481 149.615L513.477 151.146L496.24 155.354L493.436 151.046ZM498.912 153.073L502.252 150.893L508.243 160.098L504.903 162.279L498.912 153.073Z" fill="white"/>
<path d="M291.962 314.364L300.03 294.661L303.955 298.319L297.11 313.941L295.425 312.37L310.552 304.468L314.395 308.05L295.291 317.467L291.962 314.364Z" fill="white"/>
<path d="M317.465 335.1C316.145 334.315 315.064 333.366 314.22 332.255C313.377 331.143 312.776 329.936 312.416 328.633C312.073 327.339 311.987 326.014 312.16 324.657C312.343 323.284 312.806 321.969 313.551 320.713C314.296 319.456 315.209 318.431 316.29 317.636C317.397 316.834 318.599 316.275 319.898 315.957C321.196 315.64 322.53 315.594 323.898 315.82C325.276 316.03 326.625 316.527 327.945 317.312C329.265 318.097 330.347 319.045 331.19 320.157C332.043 321.252 332.641 322.447 332.985 323.74C333.328 325.034 333.405 326.354 333.216 327.702C333.043 329.058 332.585 330.365 331.84 331.622C331.095 332.878 330.169 333.907 329.062 334.709C327.972 335.52 326.773 336.092 325.465 336.425C324.166 336.743 322.828 336.796 321.45 336.587C320.097 336.371 318.769 335.875 317.465 335.1ZM319.709 331.205C320.675 331.779 321.636 332.068 322.593 332.07C323.549 332.073 324.445 331.81 325.28 331.283C326.115 330.755 326.834 329.984 327.435 328.97C327.875 328.229 328.163 327.485 328.3 326.739C328.454 326.002 328.451 325.292 328.29 324.608C328.139 323.908 327.845 323.265 327.409 322.679C326.972 322.093 326.392 321.584 325.668 321.154C324.702 320.579 323.741 320.291 322.784 320.288C321.837 320.27 320.946 320.524 320.111 321.052C319.276 321.579 318.562 322.342 317.97 323.341C317.512 324.114 317.201 324.877 317.038 325.629C316.9 326.376 316.907 327.099 317.058 327.799C317.219 328.482 317.517 329.117 317.954 329.704C318.399 330.274 318.985 330.774 319.709 331.205Z" fill="white"/>
<path d="M337.001 345.189L343.597 326.397L348.34 328.067L341.744 346.859L337.001 345.189ZM340.764 346.514L342.196 342.432L351.259 345.623L349.826 349.705L340.764 346.514Z" fill="white"/>
<path d="M359.935 352.772L363.29 333.141L368.246 333.991L364.891 353.622L359.935 352.772ZM363.866 353.446L364.595 349.182L374.064 350.806L373.335 355.07L363.866 353.446Z" fill="white"/>
<path d="M383.847 356.469L383.749 336.552L388.777 336.527L388.876 356.444L383.847 356.469ZM387.836 356.449L387.815 352.207L398.602 352.154L398.623 356.396L387.836 356.449ZM387.796 348.359L387.776 344.23L397.551 344.181L397.572 348.31L387.796 348.359ZM387.759 340.774L387.738 336.533L398.356 336.48L398.377 340.722L387.759 340.774Z" fill="white"/>
<path d="M414.609 347.698L404.75 336.562L410.407 335.486L418.05 344.584L414.076 345.34L417.857 334.069L423.404 333.014L418.252 347.005L414.609 347.698ZM415.359 354.819L413.648 345.793L418.587 344.854L420.298 353.879L415.359 354.819Z" fill="white"/>
<path d="M440.261 348.691L438.887 345.216L442.751 343.683C443.482 343.393 443.977 342.965 444.237 342.398C444.506 341.808 444.51 341.181 444.249 340.52C444.076 340.084 443.829 339.739 443.507 339.484C443.177 339.212 442.796 339.061 442.361 339.032C441.937 338.978 441.482 339.048 440.994 339.242L437.13 340.775L435.797 337.405L439.374 335.986C439.983 335.744 440.421 335.399 440.686 334.951C440.963 334.479 440.974 333.921 440.719 333.276C440.464 332.632 440.078 332.241 439.56 332.104C439.053 331.942 438.495 331.982 437.886 332.224L434.309 333.644L432.935 330.169L437.634 328.304C438.783 327.848 439.861 327.672 440.869 327.776C441.894 327.873 442.777 328.198 443.519 328.749C444.261 329.301 444.815 330.039 445.18 330.962C445.669 332.198 445.649 333.395 445.12 334.552C444.601 335.685 443.579 336.665 442.054 337.492L441.434 335.924C443.292 335.429 444.877 335.465 446.189 336.032C447.494 336.582 448.425 337.562 448.983 338.973C449.397 340.018 449.504 341.053 449.306 342.079C449.101 343.087 448.612 344.017 447.841 344.867C447.087 345.71 446.066 346.387 444.778 346.898L440.261 348.691ZM436.554 350.162L429.227 331.64L433.822 329.817L441.149 348.338L436.554 350.162Z" fill="white"/>
<path d="M460.274 340.482L455.939 319.552L460.015 316.908L477.241 329.475L472.834 332.334L458.911 321.408L460.443 320.414L464.587 337.684L460.274 340.482ZM462.318 335.004L460.152 331.654L469.365 325.677L471.532 329.027L462.318 335.004Z" fill="white"/>
<path d="M485.424 323.202L471.718 308.749L475.36 305.283L489.066 319.736L485.424 323.202ZM488.314 320.453L485.336 317.313L492.296 310.692L495.273 313.831L488.314 320.453Z" fill="white"/>
<path d="M502.57 306.214L486.628 294.273L489.636 290.244L505.578 302.185L502.57 306.214ZM504.956 303.018L501.493 300.424L507.241 292.726L510.703 295.32L504.956 303.018Z" fill="white"/>
</svg>
