<svg width="601" height="164" viewBox="0 0 601 164" fill="none" xmlns="http://www.w3.org/2000/svg">
<g clip-path="url(#clip0_1676_13352)">
<path d="M52.3965 30.591C52.376 30.3983 52.3842 30.2424 52.3432 30.103C52.0499 29.1391 52.5073 28.3537 52.9955 27.6154C53.1493 27.3816 53.5596 27.2135 53.8611 27.2012C54.415 27.1766 54.9873 27.236 55.5247 27.3714C55.736 27.4247 56.056 27.8431 56.0067 27.9784C55.8283 28.4665 56.1011 28.6736 56.3801 28.9546C56.5196 29.0961 56.5934 29.3442 56.6139 29.5534C56.6508 29.9246 56.6242 30.3039 56.6242 30.7428C59.9903 30.7613 63.3051 31.1304 66.5604 30.8925C66.382 29.982 66.1933 29.2191 66.0948 28.446C66.0251 27.8923 66.2466 27.4821 66.8599 27.2873C67.4794 27.0904 68.0435 26.709 68.665 26.5224C69.4281 26.2927 69.9758 26.5757 70.3265 27.3037C70.6588 27.9948 70.9317 28.7167 71.2414 29.4488C71.7932 29.1002 72.3819 28.7269 72.9727 28.3537C73.1491 28.243 73.3152 28.0604 73.5039 28.0317C74.5603 27.8697 74.6957 27.0945 74.8024 26.2414C74.9398 25.1299 74.7367 25.2448 76.027 25.2796C76.1583 25.2837 76.2875 25.3166 76.4393 25.3412C76.4762 25.2899 76.5316 25.2345 76.5603 25.1689C77.0157 24.0943 78.191 23.838 78.9685 24.7608C79.3541 25.2202 79.7746 25.3555 80.2341 25.3412C80.9418 25.3186 80.9849 25.6652 80.9746 26.2168C80.9479 27.5067 80.87 27.2996 82.0597 27.3119C82.8207 27.3201 83.5838 27.3078 84.3448 27.3017C84.3797 27.3017 84.4125 27.2771 84.511 27.2381C84.511 26.7931 84.5233 26.3235 84.5069 25.8539C84.4946 25.5114 84.634 25.3494 84.9766 25.3904C85.674 25.4745 86.2443 25.3207 86.7017 24.7116C87.0402 24.2625 87.6145 24.1517 87.9878 24.6029C88.6299 25.3801 89.4299 25.454 90.316 25.3719C90.3714 25.3658 90.4309 25.3719 90.4863 25.3822C90.5232 25.3863 90.556 25.4047 90.677 25.4458C90.677 25.9215 90.6442 26.4322 90.6914 26.9325C90.7119 27.1499 90.8452 27.4186 91.0155 27.5519C91.4873 27.923 92.0062 28.2348 92.5293 28.5875C92.9252 27.9333 93.3006 27.2689 93.7272 26.6352C93.8421 26.465 94.1006 26.305 94.3036 26.2907C95.4031 26.2066 96.4452 26.4158 97.4216 26.9571C97.9692 27.2607 98.2113 27.6688 98.1477 28.2963C98.0903 28.8582 98.0841 29.4242 98.0513 30.025H108.8C108.853 29.1022 108.921 28.1978 108.952 27.2914C108.964 26.9346 109.093 26.7787 109.448 26.7439C109.938 26.6967 110.422 26.5983 110.911 26.5429C112.035 26.4178 113.007 26.8669 113.069 28.3229C113.122 29.539 113.116 29.6087 114.336 29.742C115.825 29.904 117.329 29.9369 118.826 30.0209C118.896 30.025 118.97 29.9881 118.986 29.984C119.155 29.295 119.313 28.649 119.468 28.001C119.555 27.6462 119.747 27.4391 120.139 27.4411C121.319 27.4452 122.414 27.8041 123.458 28.2942C123.694 28.405 123.84 28.8377 123.907 29.1473C123.983 29.4898 123.924 29.863 123.924 30.2301C124.125 30.2896 124.301 30.3573 124.482 30.3901C125.025 30.4906 125.237 30.8166 125.232 31.356C125.21 34.5346 125.214 37.7112 125.185 40.8898C125.157 44.1074 125.124 47.323 125.056 50.5385C125.009 52.8394 124.91 55.1383 124.822 57.4392C124.765 58.9383 124.64 60.4354 124.625 61.9344C124.615 62.9352 124.822 63.9401 124.793 64.9408C124.757 66.2041 124.603 67.4673 124.437 68.7244C124.412 68.9172 124.057 69.2104 123.852 69.2125C122.336 69.2309 120.812 69.2638 119.304 69.1428C117.306 68.9808 115.315 68.7142 113.329 68.4312C111.838 68.2179 110.344 67.98 108.884 67.6191C107.743 67.3381 106.921 66.5752 106.607 65.3817C105.916 62.7588 105.231 60.1339 104.544 57.509C104.377 56.8732 104.277 56.2047 104.008 55.6141C103.766 55.0809 103.378 54.5928 102.966 54.1663C102.761 53.955 102.369 53.8546 102.053 53.834C101.2 53.7787 100.338 53.75 99.4851 53.793C98.0554 53.8628 96.8554 53.1778 95.5775 52.7246C94.9826 52.5134 94.357 52.3862 93.7662 52.2263C93.7047 52.3432 93.6657 52.3924 93.6739 52.4026C94.4206 53.3624 94.1477 54.3795 93.5919 55.2142C92.7119 56.539 92.7139 58.0032 92.6257 59.4633C92.5642 60.4497 92.6339 61.4423 92.6052 62.4328C92.595 62.8183 92.7139 62.9762 93.0873 63.1075C95.1693 63.8396 97.2554 64.5594 99.3025 65.3817C101.099 66.1015 102.827 66.9956 104.119 68.4988C104.997 69.5201 105.598 70.7095 105.627 72.0835C105.696 75.4508 105.674 78.8202 105.77 82.1875C105.826 84.1582 106.033 86.1249 106.182 88.0915C106.297 89.6029 106.388 91.1205 106.568 92.6236C106.73 93.971 107.03 95.3019 107.216 96.6451C107.616 99.5326 108.347 102.338 109.179 105.125C110.088 108.17 111.458 110.984 113.253 113.607C114.646 115.641 116.511 117.196 118.324 118.809C119.557 119.907 120.882 120.909 122.041 122.076C123.228 123.274 124.153 124.672 124.652 126.336C125.575 129.418 124.484 131.512 121.68 132.904C119.364 134.055 116.869 134.68 114.336 135.156C111.944 135.605 109.561 136.101 107.159 136.487C105.405 136.768 103.631 136.911 101.863 137.098C100.373 137.256 98.882 137.397 97.3908 137.529C96.6728 137.592 95.9508 137.625 95.2308 137.658C93.3314 137.744 91.4319 137.82 89.5324 137.902C87.1222 138.006 84.712 138.111 82.2997 138.222C81.309 138.267 80.4454 138.01 79.7069 137.301C79.151 136.766 78.9028 136.187 78.8782 135.4C78.8208 133.55 78.3182 131.797 77.4895 130.136C77.3521 129.861 77.3213 129.514 77.3049 129.198C77.2823 128.747 77.3931 128.259 76.9254 127.96C75.8116 127.25 75.4136 126.098 75.149 124.923C74.7429 123.12 74.5337 121.272 74.0742 119.486C73.6926 117.995 73.067 116.568 72.5583 115.108C71.826 113.006 71.2947 110.865 71.4793 108.615C71.545 107.826 71.7501 107.046 71.8055 106.257C71.8978 104.914 71.9532 103.566 71.9655 102.221C71.9819 100.357 71.9491 98.4949 71.9245 96.6308C71.9183 96.1571 71.8568 95.6854 71.8342 95.2117C71.8137 94.7646 71.746 94.3381 72.146 93.9505C72.4701 93.6347 72.5378 93.1445 72.2363 92.7528C71.9799 92.4186 71.9491 92.1007 71.9922 91.7029C72.0763 90.942 71.8342 90.7001 71.0978 90.698C70.6547 90.696 70.386 90.8559 70.384 91.3501C70.3799 91.8218 70.2999 92.2586 69.9348 92.638C69.5696 93.0194 69.6148 93.4624 69.8999 93.93C70.0722 94.2109 70.1645 94.5882 70.1645 94.9205C70.1645 96.7641 70.1542 98.6097 70.0906 100.451C70.0024 102.974 69.9163 105.498 69.7255 108.014C69.6168 109.454 69.3624 110.89 69.7645 112.302C70.1358 113.605 70.5871 114.886 71.0568 116.158C71.5552 117.501 72.2014 118.793 72.6301 120.155C72.9706 121.244 73.0691 122.406 73.2927 123.534C73.5675 124.919 73.7665 126.321 74.4106 127.613C74.5788 127.952 74.5931 128.407 74.5603 128.799C74.5111 129.36 74.8126 129.68 75.1778 130C75.3275 130.132 75.5285 130.271 75.5716 130.441C75.8977 131.717 76.1911 133.001 76.4926 134.282C76.5131 134.372 76.4967 134.473 76.509 134.567C76.6936 135.952 76.2977 136.684 74.9685 137.049C72.8988 137.617 70.7983 137.988 68.6281 137.701C67.7645 137.586 66.8804 137.619 66.0107 137.553C64.2712 137.42 62.5338 137.268 60.7964 137.116C59.5144 137.004 58.2221 136.942 56.9524 136.747C54.417 136.358 51.8796 135.952 49.3668 135.439C47.2828 135.012 45.2069 134.504 43.1741 133.884C41.2234 133.29 39.3013 132.539 37.8983 130.95C37.6234 130.64 37.4716 130.138 37.4388 129.713C37.2993 127.894 37.7588 126.206 38.5895 124.58C39.7054 122.394 41.4982 120.809 43.2623 119.213C44.5382 118.059 46.0171 117.128 47.2622 115.945C48.0807 115.165 48.7453 114.171 49.3012 113.174C51.3032 109.589 52.776 105.779 54.0068 101.862C54.7452 99.51 55.1596 97.0983 55.5555 94.6867C55.8303 93.0092 55.9247 91.2989 56.0396 89.5988C56.2221 86.8898 56.3555 84.1767 56.5052 81.4636C56.5811 80.0855 56.6693 78.7074 56.7144 77.3272C56.7329 76.7797 56.6037 76.226 56.6303 75.6784C56.737 73.5129 56.5585 71.2878 57.619 69.2843C57.9739 68.6157 58.4416 67.9308 59.0303 67.4817C59.8918 66.8254 60.8785 66.3004 61.8733 65.8534C63.3154 65.2033 64.8025 64.6414 66.2897 64.098C67.1348 63.7903 68.0209 63.5935 68.8866 63.3433C69.0466 63.2961 69.2025 63.2264 69.3666 63.1649C69.2599 62.3753 69.3153 61.6535 69.6148 60.8927C70.3737 58.9547 70.3286 56.9696 69.5942 55.0194C69.4589 54.6625 69.1778 54.359 69.0548 54.1704C67.3912 54.5251 65.8528 54.8676 64.3061 55.1711C63.9677 55.2388 63.9205 55.3762 63.8712 55.6879C63.7277 56.5943 63.6271 57.5356 63.2969 58.3805C62.9072 59.3772 62.019 59.9391 60.9851 60.2221C60.5482 60.341 60.1113 60.4702 59.6662 60.5584C58.7267 60.745 58.2693 61.3643 58.1031 62.2502C57.9431 63.1033 57.8529 63.9749 57.6334 64.8116C57.5144 65.2607 57.2642 65.7262 56.9421 66.0605C56.1155 66.9198 55.0611 67.3197 53.8632 67.4263C49.7648 67.7954 45.6582 67.7503 41.5516 67.7667C40.1895 67.7729 39.2972 67.0408 39.3424 65.595C39.4018 63.7001 39.1618 61.7888 39.3116 59.9063C39.5044 57.5049 39.7649 55.1137 39.7095 52.6959C39.6172 48.6662 39.4757 44.6345 39.5126 40.6048C39.5352 38.2423 39.7854 35.8737 40.0972 33.5297C40.2141 32.65 40.7331 31.801 41.1885 31.0053C41.3464 30.7284 41.8613 30.6546 42.3392 30.4311C42.3392 30.0066 42.3598 29.4139 42.331 28.8254C42.3126 28.4501 42.5321 28.327 42.8213 28.2471C42.9669 28.206 43.1208 28.1671 43.2685 28.1732C44.4049 28.2204 45.5453 28.245 46.6776 28.3455C48.0417 28.4665 47.8428 28.5854 47.7915 30.0127C47.7853 30.1932 47.7115 30.3716 47.6561 30.6013H52.3883L52.3965 30.591ZM86.4535 50.073C86.0617 49.347 85.7868 48.7072 85.395 48.1474C84.8966 47.4337 84.3202 46.7057 83.3725 46.638C82.3428 46.5662 81.2987 46.5847 80.271 46.6647C79.6536 46.7139 79.0526 46.9477 78.8003 47.6408C78.751 47.7741 78.6095 47.8726 78.5213 47.9936C78.0905 48.5965 77.6618 49.2014 77.2064 49.8433C77.5059 49.9253 77.7049 49.9725 77.8977 50.034C78.4413 50.2083 78.7531 50.1181 78.9582 49.4824C79.268 48.5165 79.91 47.7495 81.0115 47.7106C81.711 47.6859 82.4515 47.7782 83.11 48.0038C83.7233 48.213 84.2587 48.6539 84.3633 49.4127C84.3797 49.5357 84.5376 49.708 84.6586 49.7367C85.2002 49.8618 85.752 49.9459 86.4555 50.071L86.4535 50.073ZM87.0402 61.4935C87.114 61.471 87.1878 61.4484 87.2617 61.4259C87.3314 61.2556 87.4237 61.0916 87.4689 60.9152C87.6412 60.2221 87.8094 59.5289 87.9571 58.8296C88.1581 57.8781 87.8504 57.0639 87.1591 56.4262C86.2956 55.6284 85.5838 55.8561 85.3561 56.986C85.2863 57.3285 85.2515 57.7448 85.3848 58.0483C85.8976 59.2152 86.4843 60.3472 87.0422 61.4935H87.0402ZM78.5213 56.8056C77.8403 57.6894 76.9049 58.0216 75.7357 58.0709C75.869 58.7517 75.99 59.3751 76.1234 60.0519C77.549 59.3238 78.2834 58.2595 78.5213 56.8056Z" fill="#C9DBFF"/>
<path d="M34.2489 15.5781C33.853 18.0267 33.4346 20.4035 33.094 22.7926C32.813 24.7675 32.5956 26.7526 32.4069 28.7397C32.2469 30.4152 32.1074 32.0968 32.0664 33.7784C31.9864 37.1395 31.9207 40.5048 31.9659 43.868C31.9925 45.81 32.2325 47.75 32.4007 49.688C32.534 51.2096 32.6551 52.7333 32.8684 54.2447C33.1515 56.2503 33.5535 58.2395 33.8366 60.2472C33.9494 61.0388 33.8715 61.857 33.8981 62.665C33.9289 63.5735 33.9125 64.4901 34.0356 65.3884C34.1812 66.4609 34.3904 67.5355 34.6961 68.5711C34.8745 69.174 35.1925 69.8036 35.6253 70.2506C36.6509 71.3129 36.893 72.6849 37.3094 73.9912C39.2663 80.129 41.7052 86.07 44.6611 91.7895C46.0149 94.4103 47.5595 96.9307 49.0015 99.5043C49.0938 99.6705 49.1246 99.9288 49.0713 100.109C47.9533 103.778 46.4764 107.303 44.6652 110.681C44.3123 111.337 43.7462 111.917 43.176 112.414C41.6991 113.704 40.0745 114.836 38.6776 116.203C37.3524 117.5 35.9432 118.757 34.9832 120.389C34.9484 120.448 34.8766 120.487 34.7515 120.596C34.0971 119.581 33.4243 118.617 32.8335 117.604C30.6202 113.808 28.3556 110.039 26.2572 106.179C23.5044 101.118 21.1906 95.8458 19.1168 90.4668C17.5271 86.3407 16.1015 82.1613 14.9917 77.8835C14.1794 74.752 13.5046 71.5836 12.8707 68.4091C12.4338 66.221 12.1282 64.0062 11.8451 61.7914C11.6502 60.2574 11.5579 58.7071 11.4902 57.1608C11.3815 54.6569 11.2441 52.1468 11.279 49.6428C11.3097 47.3952 11.5415 45.1497 11.7138 42.9041C11.7877 41.93 11.8554 40.9436 12.0769 39.9982C12.2205 39.3851 12.5774 38.7924 12.9446 38.2633C14.6676 35.7778 16.3702 33.2759 18.1917 30.8663C19.3753 29.3016 20.7086 27.8395 22.0583 26.4121C23.7014 24.6711 25.3977 22.9751 27.1393 21.3345C28.3618 20.1841 29.689 19.1402 30.9956 18.0821C32.0541 17.2249 33.1515 16.4189 34.2448 15.5802L34.2489 15.5781Z" fill="white"/>
<path d="M116.533 23.42C114.995 21.8779 113.044 21.2442 110.95 21.2996C109.544 21.3365 108.109 21.6605 106.767 22.1035C105.542 22.5075 104.745 23.5431 104.187 24.7715C104.102 24.7776 103.971 24.7776 103.842 24.7981C102.952 24.9396 102.406 24.5992 101.828 23.8548C100.96 22.7351 99.7169 21.9989 98.3015 21.6626C97.1713 21.3939 96.0329 21.1519 94.8924 20.9366C94.5662 20.8751 94.2154 20.9489 93.8749 20.9612C93.7662 20.9653 93.6206 21.0289 93.559 20.9797C92.8124 20.3911 91.8606 20.4362 91.0175 20.1512C90.0145 19.8128 88.993 19.5318 87.994 19.1894C87.112 18.8879 86.3345 19.335 85.5243 19.499C85.0115 19.6036 84.5253 19.8825 84.0494 20.1266C83.19 20.5695 82.3674 20.5941 81.5038 20.1081C79.7972 19.1443 78.0105 18.6562 76.0393 19.2345C75.3172 19.4457 74.5911 19.5995 73.9901 20.0999C73.8178 20.2435 73.5327 20.2414 73.3193 20.346C72.7204 20.6372 72.0927 20.8915 71.5552 21.2709C71.2127 21.5129 70.9358 21.5416 70.5788 21.4349C69.6701 21.1642 68.7594 20.9428 67.7809 21.4349C67.7522 21.0637 67.7071 20.7725 67.7112 20.4813C67.742 18.2563 67.6948 16.0251 67.8466 13.8083C67.9963 11.614 68.2938 9.42379 68.6322 7.24796C68.8845 5.62173 69.2886 4.02011 69.6517 2.41234C69.9122 1.25777 69.9286 1.23316 71.0732 1.15319C74.0721 0.94196 77.0711 0.712278 80.0741 0.574879C81.8566 0.49285 83.6494 0.490799 85.4279 0.601539C87.6843 0.740988 89.9365 0.999381 92.1827 1.26598C97.0031 1.83608 101.696 2.97424 106.312 4.45897C111.84 6.23695 117.095 8.62605 122.1 11.5566C125.546 13.5724 128.853 15.8016 131.932 18.3527C133.36 19.5359 134.771 20.7418 136.135 21.9948C137.534 23.2785 138.943 24.5643 140.213 25.9732C142.016 27.9768 143.725 30.0665 145.419 32.1664C147.595 34.8652 149.478 37.769 151.199 40.7754C152.176 42.4816 153.078 44.2288 153.911 46.0314C153.056 45.4777 152.213 44.9035 151.343 44.3724C149.216 43.0722 147.125 41.6982 144.931 40.5231C141.821 38.8579 138.646 37.3178 135.47 35.7819C134.004 35.0723 132.48 34.4776 130.962 33.8788C130.617 33.7434 130.531 33.5835 130.553 33.2636C130.666 31.7194 130.459 30.2141 129.981 28.7478C129.885 28.4546 129.698 28.1859 129.534 27.9173C129.025 27.0949 128.486 26.2911 128 25.4544C127.417 24.4516 126.498 23.7789 125.497 23.4077C123.747 22.7597 121.946 22.0707 120.039 22.204C118.812 22.2901 117.524 22.4418 116.535 23.4221L116.533 23.42Z" fill="white"/>
<path d="M157.547 108.313C150.202 103.402 142.788 98.9394 135.1 94.9446C127.414 90.9498 119.521 87.4307 111.275 84.7197C110.805 80.9586 111.107 77.1935 110.996 73.3894C112.822 73.6457 114.594 73.9513 116.377 74.1297C118.518 74.345 120.672 74.5644 122.817 74.5624C124.087 74.5603 125.39 74.2363 126.61 73.8467C127.238 73.6457 127.761 73.0284 128.262 72.526C129.441 71.3427 129.496 69.7145 129.853 68.2174C130.017 67.5263 130.036 66.7983 130.13 65.9883C130.875 66.3082 131.605 66.5789 132.296 66.9214C135.58 68.5476 138.895 70.1164 142.122 71.8513C145.773 73.8139 149.24 76.0902 152.534 78.6085C154.856 80.3844 157.119 82.2424 159.389 84.086C160.181 84.7279 160.911 85.4436 161.676 86.1203C161.91 86.3274 161.949 86.5284 161.9 86.8606C161.761 87.7917 161.742 88.7412 161.633 89.6783C161.465 91.1344 161.317 92.5986 161.059 94.0402C160.647 96.3432 160.234 98.6523 159.672 100.92C159.067 103.365 158.288 105.766 157.547 108.309V108.313Z" fill="white"/>
<path d="M86.0822 161.917C88.8227 160.171 91.555 158.545 94.1621 156.738C96.7898 154.917 99.3313 152.963 101.84 150.976C103.647 149.544 105.36 147.99 107.073 146.444C108.548 145.113 109.969 143.72 111.405 142.348C111.608 142.154 111.786 141.926 111.951 141.694C112.58 140.796 113.536 140.603 114.527 140.39C117.454 139.762 120.41 139.221 123.181 138.013C125.38 137.056 127.232 135.71 128.629 133.705C129.639 132.259 130.114 130.633 130.262 128.976C130.371 127.762 129.948 126.492 129.706 125.26C129.452 123.968 129.044 122.727 128.309 121.609C128.233 121.495 128.295 121.224 128.381 121.082C129.479 119.286 130.652 117.537 131.686 115.705C133.415 112.648 135.072 109.549 136.728 106.45C137.489 105.027 138.172 103.563 138.89 102.117C140.309 102.646 149.907 108.47 155.833 112.498C151.142 123.629 144.352 133.309 135.335 141.35C121.313 153.853 104.827 160.582 86.0781 161.917H86.0822Z" fill="white"/>
<path d="M6.79943 50.2802C6.79943 50.9262 6.78096 51.5742 6.80353 52.2202C6.87122 54.3058 6.86507 56.3996 7.05173 58.477C7.31224 61.3992 7.62813 64.3236 8.07941 67.2233C8.91427 72.5962 10.0958 77.8994 11.7922 83.0693C13.0352 86.855 14.3132 90.6345 15.7531 94.3484C16.9183 97.3527 18.3152 100.271 19.671 103.199C21.6341 107.446 23.8494 111.564 26.3007 115.547C28.2966 118.787 30.4176 121.953 32.4955 125.144C32.7006 125.46 32.6739 125.759 32.6001 126.079C32.5037 126.498 32.3252 126.908 32.3006 127.328C32.2596 128.034 31.9006 128.429 31.3037 128.745C27.7817 130.618 24.2269 132.414 20.4751 133.796C20.1921 133.901 19.991 133.944 19.7839 133.671C18.2844 131.713 16.6803 129.826 15.2978 127.788C13.5604 125.228 11.905 122.599 10.3871 119.903C7.61172 114.973 5.50714 109.743 3.8969 104.319C2.93692 101.085 2.13488 97.8141 1.65283 94.4735C1.40668 92.7611 1.15438 91.0487 0.98002 89.3282C0.811817 87.6732 0.709254 86.0121 0.635409 84.349C0.559513 82.6797 0.477463 81.0042 0.534898 79.3349C0.606692 77.2576 0.762587 75.1802 0.982071 73.113C1.22412 70.8511 1.44976 68.5748 1.91744 66.3559C2.58205 63.2121 3.38409 60.0888 4.28049 57.0025C4.91432 54.8164 5.80252 52.7021 6.57789 50.555C6.61481 50.4545 6.66609 50.3581 6.71122 50.2617C6.74199 50.2679 6.77071 50.274 6.80148 50.2802H6.79943Z" fill="white"/>
<path d="M130.59 38.5859C131.993 39.1848 133.372 39.722 134.703 40.3537C136.994 41.4406 139.286 42.5315 141.523 43.723C145.87 46.0362 150.051 48.6222 153.995 51.5794C155.064 52.3812 156.126 53.1913 157.179 54.0115C157.33 54.1305 157.453 54.3274 157.519 54.5119C158.906 58.3776 159.962 62.3396 160.703 66.3754C161.113 68.6087 161.38 70.8727 161.63 73.1326C161.786 74.5517 161.808 75.9872 161.858 77.4186C161.89 78.3783 161.864 79.3401 161.864 80.3983C161.248 79.8959 160.709 79.4345 160.149 79.0018C157.659 77.0802 155.222 75.0849 152.658 73.272C147.852 69.874 142.762 66.9394 137.437 64.4313C135.132 63.3444 132.777 62.3621 130.424 61.3778C129.969 61.1871 129.842 60.9615 129.866 60.5042C129.997 58.0064 130.121 55.5065 130.215 53.0087C130.313 50.39 130.383 47.7691 130.447 45.1483C130.498 43.075 130.521 41.0017 130.557 38.9284C130.557 38.8402 130.574 38.752 130.59 38.5921V38.5859Z" fill="white"/>
<path d="M45.5898 153.668C48.0555 152.737 50.5375 151.866 52.9682 150.867C56.4943 149.417 59.9199 147.746 63.2019 145.796C64.685 144.914 66.1598 144.022 67.6531 143.156C67.848 143.044 68.127 143.025 68.3629 143.04C69.9669 143.128 71.5669 143.146 73.1443 142.779C74.3628 142.494 75.5812 142.201 76.8017 141.926C76.9309 141.897 77.1258 141.92 77.2181 142C78.2909 142.951 79.6571 143.144 80.976 143.351C81.9709 143.507 83.0088 143.407 84.0262 143.39C85.5831 143.364 87.1421 143.335 88.699 143.261C91.2733 143.138 93.8476 142.982 96.4199 142.83C97.7245 142.754 99.0291 142.685 100.33 142.572C101.901 142.437 103.47 142.256 105.127 142.088C104.623 142.564 104.194 143.007 103.726 143.405C101.786 145.06 99.8496 146.719 97.8866 148.343C94.4589 151.177 90.7995 153.689 87.0108 156.008C83.495 158.16 79.8663 160.104 76.0428 161.66C75.8274 161.748 75.5689 161.796 75.3412 161.771C72.8182 161.482 70.289 161.24 67.7803 160.86C61.7619 159.952 55.9733 158.201 50.3611 155.865C48.8021 155.215 47.2801 154.474 45.7437 153.773C45.6801 153.744 45.6268 153.691 45.596 153.668H45.5898Z" fill="white"/>
<path d="M65.1193 2.13281C63.4496 9.13811 63.0085 16.1393 63.3798 23.1795C62.5962 23.7434 61.8537 24.6293 61.386 25.546C60.9716 25.6465 60.7234 25.4804 60.5142 25.1072C59.9522 24.1023 59.146 23.3025 58.143 22.7632C57.5973 22.4699 56.9204 22.4351 56.3338 22.2054C54.5615 21.5102 52.8466 21.9901 51.1502 22.4617C50.6702 22.595 50.2867 23.0523 49.8251 23.2984C49.5667 23.4379 49.2098 23.5712 48.9533 23.5014C47.657 23.1508 46.3339 23.0708 45.0088 22.917C43.4478 22.7365 41.9873 23.0134 40.574 23.4809C38.9658 24.0121 37.8438 25.1502 37.4212 26.8687C37.3474 27.1661 37.2181 27.4471 37.1135 27.7362C37.0581 27.7239 37.0007 27.7095 36.9453 27.6972C36.9966 27.0779 37.0233 26.4545 37.1053 25.8372C37.2715 24.5904 37.4479 23.3456 37.653 22.1049C37.9545 20.2756 38.254 18.4443 38.6109 16.6253C38.8878 15.2144 39.2386 13.8158 39.5853 12.4213C39.6366 12.2183 39.8109 11.9886 39.9935 11.882C44.6765 9.10735 49.5851 6.81463 54.7317 5.0305C58.0055 3.89439 61.3306 2.9408 64.7336 2.27431C64.8239 2.25586 64.908 2.21279 65.1213 2.13281H65.1193Z" fill="white"/>
<path d="M111.592 89.5312C119.741 92.3408 127.473 95.9111 135.015 99.9121C132.147 106.075 128.925 111.989 125.247 117.717C124.664 117.239 124.098 116.806 123.567 116.332C121.985 114.923 120.392 113.525 118.849 112.071C117.286 110.596 116.375 108.693 115.446 106.788C114.301 104.44 113.618 101.946 113.005 99.4404C112.556 97.607 112.328 95.7163 112.047 93.846C111.856 92.5807 111.739 91.3051 111.594 90.0337C111.577 89.8901 111.592 89.7425 111.592 89.5312Z" fill="white"/>
<path d="M32.9715 133.086C34.0258 135.092 35.9273 136.371 37.8883 137.446C39.3406 138.241 41.0226 138.656 42.6431 139.099C44.9364 139.724 47.2543 140.263 49.5805 140.756C51.6522 141.195 53.7425 141.547 55.8327 141.886C57.2624 142.117 58.7065 142.259 60.169 142.445C60.0624 142.519 59.9413 142.622 59.808 142.694C54.7353 145.454 49.4738 147.777 43.9457 149.467C42.6944 149.851 41.4165 150.148 40.1447 150.466C39.9744 150.509 39.7344 150.49 39.5929 150.398C37.8124 149.25 36.0053 148.136 34.2822 146.904C32.4299 145.579 30.6494 144.152 28.8546 142.745C28.2433 142.267 27.6792 141.728 27.1131 141.197C25.8269 139.993 24.5531 138.775 23.3203 137.608C26.5592 136.09 29.7469 134.597 32.9715 133.088V133.086Z" fill="white"/>
<path d="M41.6211 72.9727H51.4835C51.4466 73.4013 51.3769 73.8647 51.3707 74.3282C51.3563 75.9073 51.3933 77.4884 51.3584 79.0674C51.3092 81.231 51.2435 83.3945 51.1225 85.5539C51.0199 87.3811 50.8394 89.2042 50.6733 91.0253C50.6117 91.6958 50.4948 92.3582 50.384 93.1601C46.7964 86.6818 43.8877 80.0251 41.6211 72.9727Z" fill="white"/>
</g>
<path d="M212.68 73.0312H197.804V18.257H219.317C234.269 18.257 241.44 24.2837 241.44 36.2608C241.44 48.8482 232.667 54.5697 219.698 54.5697H212.68V73.0312ZM212.68 42.8978H220.156C223.665 42.8978 226.564 41.0669 226.564 36.2608C226.564 32.5227 223.894 30.3867 220.004 30.3867H212.68V42.8978ZM281.122 73.0312H268.077V47.7802C268.077 44.5761 266.398 43.1266 264.033 43.1266C262.584 43.1266 260.677 43.5844 258.617 45.1864V73.0312H245.572V18.257H258.617V36.1082C262.355 33.5144 265.483 32.2938 269.907 32.2938C275.095 32.2938 278.452 34.4299 280.054 38.2443C280.817 40.0751 281.122 42.2875 281.122 47.6276V73.0312ZM299.481 28.4795H286.436V17.3415H299.481V28.4795ZM299.481 73.0312H286.436V33.2093H299.481V73.0312ZM318.294 73.0312H305.249V18.257H318.294V73.0312ZM357.704 73.0312H345.04L344.201 69.0643C340.844 71.5818 336.954 73.6415 331.995 73.6415C325.892 73.6415 321.62 69.5983 321.62 62.8088C321.62 57.0872 324.138 53.9594 328.181 51.5945C332.224 49.2296 337.259 48.1616 344.201 46.8647C344.659 43.8132 343.743 41.6772 339.624 41.6772C336.343 41.6772 334.207 43.1266 332.682 45.7967L323.375 40.0751C326.731 34.2773 333.063 32.2938 340.768 32.2938C351.601 32.2938 356.941 37.0999 356.941 47.475V64.4871L357.704 73.0312ZM343.667 61.817V54.4172C340.539 55.0275 339.09 55.3326 337.183 56.3243C335.733 57.0872 334.97 58.6892 334.97 60.5201C334.97 62.885 336.343 64.1819 338.327 64.1819C340.387 64.1819 342.065 63.2665 343.667 61.817ZM398.856 73.0312H388.557L387.108 69.0643C383.751 71.8107 380.471 73.9467 375.589 73.9467C365.9 73.9467 360.789 65.7077 360.789 53.578C360.789 40.9906 366.815 32.599 376.885 32.599C380.089 32.599 383.37 33.8196 385.811 35.6505V18.257H398.856V73.0312ZM385.811 61.2067V44.7287C384.59 43.5844 382.836 42.7452 380.776 42.7452C376.199 42.7452 374.215 46.6359 374.215 53.7306C374.215 60.0624 376.733 63.4953 380.7 63.4953C382.454 63.4953 384.209 62.5799 385.811 61.2067ZM439.231 63.8005C434.653 71.8107 428.245 73.9467 421.227 73.9467C408.334 73.9467 402.994 64.3345 402.994 52.5863C402.994 40.1514 410.547 32.2938 421.532 32.2938C433.738 32.2938 439.383 40.304 439.383 53.1966C439.383 53.8831 439.383 54.7223 439.307 55.9429H415.734C416.116 60.8253 417.718 63.9531 422.219 63.9531C425.88 63.9531 427.864 62.1222 429.466 59.0707L439.231 63.8005ZM421.837 41.6772C418.48 41.6772 416.65 44.1184 415.887 48.009H427.101C427.177 44.1184 425.041 41.6772 421.837 41.6772ZM455.751 73.0312H442.706V18.257H455.751V73.0312ZM474.564 86.1527H461.518V33.2093H473.267V37.1762C476.623 34.4299 479.904 32.2938 484.786 32.2938C494.474 32.2938 499.586 40.5329 499.586 52.6625C499.586 65.2499 493.559 73.6415 483.489 73.6415C480.285 73.6415 477.005 72.421 474.564 70.5901V86.1527ZM474.564 45.0338V61.5119C475.784 62.6562 477.539 63.4953 479.598 63.4953C484.176 63.4953 486.159 59.6047 486.159 52.51C486.159 46.1781 483.642 42.7452 479.675 42.7452C477.92 42.7452 476.166 43.6606 474.564 45.0338ZM539.274 73.0312H526.228V47.7802C526.228 44.5761 524.55 43.1266 522.185 43.1266C520.736 43.1266 518.829 43.5844 516.769 45.1864V73.0312H503.724V18.257H516.769V36.1082C520.507 33.5144 523.635 32.2938 528.059 32.2938C533.247 32.2938 536.604 34.4299 538.206 38.2443C538.968 40.0751 539.274 42.2875 539.274 47.6276V73.0312ZM557.633 28.4795H544.588V17.3415H557.633V28.4795ZM557.633 73.0312H544.588V33.2093H557.633V73.0312ZM597.043 73.0312H584.38L583.54 69.0643C580.184 71.5818 576.293 73.6415 571.335 73.6415C565.232 73.6415 560.959 69.5983 560.959 62.8088C560.959 57.0872 563.477 53.9594 567.52 51.5945C571.563 49.2296 576.598 48.1616 583.54 46.8647C583.998 43.8132 583.083 41.6772 578.963 41.6772C575.683 41.6772 573.547 43.1266 572.021 45.7967L562.714 40.0751C566.071 34.2773 572.403 32.2938 580.108 32.2938C590.94 32.2938 596.28 37.0999 596.28 47.475V64.4871L597.043 73.0312ZM583.006 61.817V54.4172C579.879 55.0275 578.429 55.3326 576.522 56.3243C575.073 57.0872 574.31 58.6892 574.31 60.5201C574.31 62.885 575.683 64.1819 577.666 64.1819C579.726 64.1819 581.404 63.2665 583.006 61.817ZM227.403 149.031H209.476L193.227 94.257H209.629L218.478 131.943H218.63L229.158 94.257H245.026L227.403 149.031ZM259.313 149.947C247.26 149.947 240.317 142.165 240.317 129.349C240.317 116.151 247.488 108.294 259.313 108.294C271.138 108.294 278.309 116.151 278.309 129.349C278.309 142.165 271.366 149.947 259.313 149.947ZM259.313 140.029C263.433 140.029 264.882 135.681 264.882 129.349C264.882 123.475 263.738 118.211 259.313 118.211C254.888 118.211 253.744 123.475 253.744 129.349C253.744 135.681 255.194 140.029 259.313 140.029ZM295.458 149.031H282.413V94.257H295.458V149.031ZM314.271 149.031H301.226V94.257H314.271V149.031ZM354.596 139.8C350.019 147.811 343.611 149.947 336.593 149.947C323.7 149.947 318.36 140.335 318.36 128.586C318.36 116.151 325.912 108.294 336.898 108.294C349.104 108.294 354.749 116.304 354.749 129.197C354.749 129.883 354.749 130.722 354.673 131.943H331.1C331.481 136.825 333.083 139.953 337.584 139.953C341.246 139.953 343.23 138.122 344.832 135.071L354.596 139.8ZM337.203 117.677C333.846 117.677 332.015 120.118 331.253 124.009H342.467C342.543 120.118 340.407 117.677 337.203 117.677ZM380.882 146.971C376.838 159.101 373.558 163.068 362.42 163.068C359.75 163.068 357.08 162.839 354.944 162.458V153.151C356.546 153.456 358.377 153.532 359.674 153.532C364.861 153.532 366.387 151.93 367.379 148.879L367.76 147.658L353.342 109.209H367.684L373.711 131.638H373.863L379.814 109.209H393.545L380.882 146.971ZM404.765 149.031H394.466V94.257H407.511V112.413C411.02 109.591 414.224 108.599 417.429 108.599C426.812 108.599 432.533 116.38 432.533 128.968C432.533 141.097 427.651 149.947 417.047 149.947C412.165 149.947 409.571 148.04 406.214 145.064L404.765 149.031ZM407.511 121.034V137.512C408.732 138.656 410.486 139.495 412.546 139.495C416.971 139.495 419.107 135.452 419.107 128.281C419.107 121.949 416.589 118.745 412.622 118.745C410.868 118.745 409.113 119.661 407.511 121.034ZM470.314 149.031H457.65L456.811 145.064C453.455 147.582 449.564 149.642 444.605 149.642C438.502 149.642 434.23 145.598 434.23 138.809C434.23 133.087 436.748 129.959 440.791 127.595C444.834 125.23 449.869 124.162 456.811 122.865C457.269 119.813 456.354 117.677 452.234 117.677C448.954 117.677 446.818 119.127 445.292 121.797L435.985 116.075C439.341 110.277 445.673 108.294 453.378 108.294C464.211 108.294 469.551 113.1 469.551 123.475V140.487L470.314 149.031ZM456.277 137.817V130.417C453.149 131.027 451.7 131.333 449.793 132.324C448.343 133.087 447.58 134.689 447.58 136.52C447.58 138.885 448.954 140.182 450.937 140.182C452.997 140.182 454.675 139.266 456.277 137.817ZM488.122 149.031H475.077V94.257H488.122V149.031ZM506.935 149.031H493.89V94.257H506.935V149.031Z" fill="#C9DBFF"/>
<defs>
<clipPath id="clip0_1676_13352">
<rect width="161.403" height="161.403" fill="white" transform="translate(0.515625 0.515625)"/>
</clipPath>
</defs>
</svg>
