<svg width="292" height="241" viewBox="0 0 292 241" fill="none" xmlns="http://www.w3.org/2000/svg">
<path fill-rule="evenodd" clip-rule="evenodd" d="M0.564453 132.897L6.3233 126.878C6.72895 126.443 7.05492 126.059 7.30121 125.726C7.56199 125.378 7.75033 125.052 7.86623 124.748C7.98213 124.429 8.04008 124.111 8.04008 123.792C8.04008 123.154 7.83001 122.655 7.40987 122.292C7.00422 121.93 6.47542 121.749 5.82347 121.749C5.15704 121.749 4.56305 121.923 4.04149 122.271C3.53442 122.618 3.05633 123.169 2.60721 123.922L0.586185 122.206C1.19467 121.177 1.94802 120.402 2.84626 119.88C3.75898 119.344 4.80209 119.076 5.97559 119.076C6.97524 119.076 7.8445 119.272 8.58337 119.663C9.33673 120.054 9.91624 120.597 10.3219 121.293C10.7275 121.988 10.9304 122.8 10.9304 123.727C10.9304 124.35 10.8507 124.915 10.6913 125.422C10.5464 125.929 10.2929 126.436 9.93072 126.943C9.58302 127.436 9.09768 127.993 8.47472 128.616L5.13215 132.028H11.2563V134.592H0.564453V132.897ZM17.706 133.832C18.6767 134.484 19.7632 134.81 20.9657 134.81C22.1537 134.81 23.2258 134.491 24.182 133.854C25.1382 133.202 25.8988 132.289 26.4638 131.115C27.0288 129.927 27.3113 128.544 27.3113 126.965C27.3113 125.371 27.0288 123.987 26.4638 122.814C25.8988 121.626 25.1309 120.706 24.1603 120.054C23.2041 119.402 22.1175 119.076 20.9005 119.076C19.7125 119.076 18.6332 119.402 17.6625 120.054C16.7064 120.706 15.9458 121.619 15.3807 122.792C14.8157 123.966 14.5332 125.342 14.5332 126.921C14.5332 128.5 14.8157 129.884 15.3807 131.072C15.9602 132.26 16.7353 133.18 17.706 133.832ZM22.726 131.55C22.2189 131.941 21.6177 132.137 20.9223 132.137C20.2269 132.137 19.6256 131.941 19.1185 131.55C18.6115 131.159 18.2131 130.579 17.9233 129.812C17.6481 129.044 17.5104 128.08 17.5104 126.921C17.5104 125.777 17.6481 124.828 17.9233 124.074C18.2131 123.307 18.6115 122.734 19.1185 122.358C19.6256 121.966 20.2196 121.771 20.9005 121.771C21.5959 121.771 22.1972 121.966 22.7042 122.358C23.2258 122.734 23.6242 123.307 23.8995 124.074C24.1892 124.842 24.3341 125.798 24.3341 126.943C24.3341 128.087 24.1892 129.044 23.8995 129.812C23.6242 130.579 23.233 131.159 22.726 131.55ZM271.813 121.879V134.592H274.725V119.314H274.508H271.813H268.814V121.879H271.813ZM281.814 134.114C282.654 134.577 283.596 134.809 284.639 134.809C285.668 134.809 286.602 134.57 287.442 134.092C288.283 133.614 288.949 132.969 289.442 132.158C289.934 131.346 290.18 130.441 290.18 129.441C290.18 128.471 289.956 127.616 289.507 126.877C289.058 126.124 288.464 125.537 287.725 125.117C286.986 124.682 286.16 124.465 285.247 124.465C284.94 124.465 284.662 124.485 284.413 124.526L288.138 119.314H284.748L280.51 125.443C279.583 126.805 279.119 128.159 279.119 129.507C279.119 130.492 279.358 131.39 279.836 132.201C280.329 132.998 280.988 133.636 281.814 134.114ZM285.986 131.81C285.595 132.042 285.146 132.158 284.639 132.158C284.132 132.158 283.676 132.042 283.27 131.81C282.879 131.564 282.567 131.238 282.335 130.832C282.118 130.412 282.009 129.941 282.009 129.42C282.009 128.898 282.118 128.434 282.335 128.029C282.567 127.623 282.879 127.304 283.27 127.073C283.676 126.826 284.132 126.703 284.639 126.703C285.146 126.703 285.595 126.819 285.986 127.051C286.377 127.283 286.689 127.609 286.921 128.029C287.153 128.434 287.268 128.898 287.268 129.42C287.268 129.941 287.153 130.412 286.921 130.832C286.689 131.238 286.377 131.564 285.986 131.81ZM291.314 142.265H268.314V139.975H291.314V142.265ZM0 142.265H29V139.975H0V142.265Z" fill="#B0CAFF"/>
<path fill-rule="evenodd" clip-rule="evenodd" d="M151.711 0.414062L149.399 17.9919L152.919 18.4564L153.836 18.5775L162.439 19.7127L162.931 15.969L154.329 14.8338L154.776 11.4373L162.486 12.4547L162.965 8.8102L155.255 7.79278L155.656 4.74331L164.11 5.85888L164.602 2.11522L156.149 0.999654L155.231 0.87861L151.711 0.414062ZM126.1 19.2166L129.119 19.018L130.566 18.9228L133.436 18.7341C134.783 18.6454 136.009 18.356 137.112 17.8657C138.232 17.3577 139.19 16.6848 139.987 15.8472C140.784 15.0095 141.38 14.0347 141.775 12.9228C142.187 11.8098 142.349 10.5879 142.262 9.25713C142.175 7.94297 141.856 6.76112 141.302 5.71159C140.766 4.66096 140.047 3.77262 139.148 3.04659C138.248 2.32056 137.211 1.78736 136.036 1.44699C134.86 1.08999 133.59 0.956356 132.225 1.04609L129.406 1.23157L127.759 1.33991L124.939 1.52539L126.1 19.2166ZM133.109 14.8963L130.314 15.0802L129.658 5.07424L132.452 4.8904C133.451 4.82474 134.328 4.95914 135.085 5.2936C135.842 5.62805 136.445 6.15643 136.893 6.87874C137.357 7.58332 137.624 8.46793 137.694 9.53256C137.765 10.6138 137.626 11.5502 137.276 12.3417C136.926 13.1165 136.39 13.7199 135.666 14.1517C134.959 14.5825 134.107 14.8307 133.109 14.8963ZM105.65 6.43742L103.787 25.3674L108.194 24.1352L108.414 20.8541L114.764 19.0789L116.623 21.7786L121.127 20.5195L109.816 5.27257L105.65 6.43742ZM112.634 15.9872L109.085 10.8349L108.666 17.0968L112.634 15.9872ZM88.8107 33.0438L81.0137 17.1211L85.0312 15.1476L91.1347 27.6117L97.9802 24.249L99.6738 27.7076L92.8283 31.0703L91.9978 31.4782L88.8107 33.0438ZM68.7598 25.3906L78.7545 40.0341L82.4478 37.5053L72.4531 22.8618L68.7598 25.3906ZM61.8442 55.243L49.6875 42.3379L52.9408 39.2636L57.5874 44.1963L62.222 39.8167L57.5754 34.884L60.8287 31.8097L72.9854 44.7148L69.7321 47.7891L64.794 42.547L60.1594 46.9266L65.0975 52.1687L61.8442 55.243ZM46.6347 59.8642L45.1364 61.9592L41.2963 59.2042L42.7946 57.1092C43.0468 56.7566 43.3492 56.4914 43.7018 56.3136C44.0506 56.1124 44.437 56.0306 44.8611 56.0681C45.2716 56.0959 45.6868 56.2605 46.1067 56.5617C46.5266 56.863 46.8158 57.2038 46.9742 57.5841C47.1326 57.9645 47.1796 58.3573 47.1152 58.7625C47.047 59.1444 46.8869 59.5116 46.6347 59.8642ZM38.5941 57.2655L38.0558 58.018L35.9902 60.9062L50.3956 71.2412L52.9995 67.6004L47.8387 63.8979L49.7879 61.1724C50.4474 60.2503 50.8609 59.2852 51.0286 58.277C51.1962 57.2689 51.0898 56.3 50.7093 55.3705C50.3153 54.4313 49.6442 53.6215 48.696 52.9413C47.7208 52.2416 46.7393 51.8657 45.7517 51.8138C44.7506 51.7521 43.8005 51.9629 42.9014 52.4463C41.9888 52.92 41.2027 53.6179 40.5433 54.5399L38.5941 57.2655ZM169.466 20.8786L174.867 3.99219L179.129 5.35979L174.901 18.5783L182.163 20.9086L180.99 24.5765L173.728 22.2462L172.847 21.9635L169.466 20.8786ZM193.776 23.0052L190.815 28.6244L186.858 26.5325L195.123 10.8477L198.262 12.5071L199.08 12.9395L202.043 14.5054C203.045 15.0352 203.842 15.7208 204.435 16.5622C205.036 17.3889 205.374 18.303 205.45 19.3045C205.533 20.2912 205.294 21.3155 204.735 22.3774C204.191 23.4098 203.481 24.1848 202.605 24.7024C201.737 25.2052 200.793 25.4415 199.773 25.4112C198.752 25.381 197.741 25.1009 196.739 24.5712L193.776 23.0052ZM195.327 20.0629L197.604 21.2666C197.987 21.4692 198.372 21.5785 198.759 21.5946C199.169 21.6038 199.551 21.5041 199.906 21.2957C200.261 21.0873 200.559 20.7545 200.8 20.2973C201.041 19.8401 201.147 19.406 201.118 18.995C201.098 18.5692 200.964 18.1969 200.718 17.878C200.494 17.5522 200.19 17.288 199.807 17.0854L197.53 15.8818L195.327 20.0629ZM203.873 35.4526L214.959 21.6172L218.448 24.4215L214.21 29.7098L219.18 33.7048L223.418 28.4165L226.906 31.2209L215.82 45.0563L212.331 42.2519L216.835 36.6319L211.865 32.6369L207.361 38.2569L203.873 35.4526ZM234.637 38.4434L221.488 50.3364L224.486 53.6607L237.634 41.7676L234.637 38.4434ZM229.102 58.0651L247.698 54.1366L250.058 57.7624L238.922 73.1552L236.372 69.2359L238.386 66.647L234.79 61.1211L231.598 61.9005L229.102 58.0651ZM244.538 58.7411L240.694 63.6822L238.446 60.2286L244.538 58.7411ZM56.9473 185.922L49.7651 203.462L52.7288 206.224L69.7348 197.841L66.3138 194.652L55.588 200.255L60.4414 189.179L56.9473 185.922ZM72.4815 221.931C71.3065 221.232 70.3436 220.388 69.5929 219.399C68.8422 218.409 68.3068 217.334 67.9867 216.174C67.6809 215.023 67.605 213.843 67.759 212.635C67.9215 211.413 68.3342 210.243 68.9973 209.124C69.6603 208.006 70.473 207.093 71.4352 206.385C72.4203 205.671 73.4908 205.173 74.6466 204.891C75.8024 204.609 76.9895 204.568 78.2077 204.769C79.4345 204.955 80.6354 205.398 81.8104 206.097C82.9854 206.795 83.9483 207.639 84.699 208.629C85.4582 209.604 85.9907 210.667 86.2965 211.819C86.6023 212.971 86.671 214.146 86.5027 215.345C86.3487 216.553 85.9402 217.716 85.2772 218.835C84.6141 219.953 83.7901 220.869 82.805 221.583C81.8342 222.305 80.7666 222.814 79.6023 223.111C78.4465 223.393 77.2552 223.441 76.0284 223.255C74.8245 223.062 73.6422 222.621 72.4815 221.931ZM74.4787 218.464C75.3384 218.975 76.1941 219.232 77.0456 219.234C77.8971 219.236 78.6946 219.003 79.438 218.533C80.1814 218.064 80.8209 217.377 81.3565 216.474C81.7475 215.814 82.0042 215.153 82.1266 214.488C82.2633 213.833 82.2602 213.201 82.1171 212.592C81.9826 211.969 81.7211 211.396 81.3328 210.874C80.9444 210.353 80.4278 209.9 79.783 209.516C78.9232 209.005 78.0676 208.748 77.2161 208.746C76.3731 208.73 75.5798 208.956 74.8364 209.426C74.093 209.895 73.4577 210.574 72.9307 211.463C72.5227 212.152 72.2461 212.831 72.1008 213.501C71.9784 214.165 71.9845 214.809 72.119 215.432C72.2621 216.04 72.5278 216.606 72.9161 217.127C73.313 217.635 73.8338 218.081 74.4787 218.464ZM95.7559 214.189L89.8841 230.917L93.2335 232.097L94.1063 232.404L101.301 234.937L102.576 231.304L95.3817 228.771L99.978 215.676L95.7559 214.189ZM110.312 237.671L113.299 220.195L117.711 220.952L115.372 234.631L122.89 235.92L122.241 239.716L114.724 238.427L113.812 238.271L110.312 237.671ZM131.523 223.234L131.611 240.964L135.162 240.946L136.087 240.941L144.764 240.898L144.745 237.122L136.068 237.166L136.051 233.74L143.828 233.701L143.81 230.025L136.033 230.064L136.018 226.988L144.545 226.946L144.526 223.17L135.999 223.212L135.074 223.217L131.523 223.234ZM164.073 238.656L162.688 231.35L166.838 220.082L161.901 221.021L159.705 227.564L155.268 222.282L150.232 223.24L158.329 232.385L159.676 239.492L164.073 238.656ZM181.858 234.033L178.557 235.343L172.035 218.855L175.335 217.546L176.126 217.232L179.519 215.886C180.541 215.48 181.501 215.323 182.398 215.416C183.311 215.502 184.097 215.791 184.758 216.282C185.418 216.773 185.911 217.43 186.236 218.251C186.671 219.352 186.654 220.417 186.183 221.447C186.033 221.774 185.837 222.086 185.593 222.384C186.147 222.433 186.66 222.56 187.134 222.765C188.296 223.254 189.125 224.127 189.622 225.383C189.99 226.313 190.085 227.235 189.909 228.148C189.726 229.045 189.291 229.873 188.605 230.629C187.934 231.38 187.025 231.983 185.878 232.438L182.648 233.72L181.858 234.033ZM181.424 230.627L184.074 229.575C184.725 229.317 185.165 228.936 185.396 228.432C185.636 227.906 185.64 227.349 185.407 226.759C185.253 226.372 185.033 226.065 184.746 225.838C184.453 225.595 184.113 225.461 183.727 225.435C183.349 225.388 182.944 225.45 182.51 225.622L179.86 226.674L181.424 230.627ZM178.674 223.674L181.068 222.724C181.61 222.509 181.999 222.202 182.236 221.803C182.482 221.382 182.491 220.885 182.265 220.312C182.038 219.738 181.694 219.39 181.233 219.268C180.782 219.124 180.285 219.16 179.743 219.375L177.349 220.325L178.674 223.674ZM199.687 226.721L195.827 208.09L199.456 205.736L214.79 216.923L210.867 219.468L208.289 217.444L202.758 221.032L203.526 224.231L199.687 226.721ZM200.415 211.265L205.336 215.127L201.879 217.369L200.415 211.265ZM209.883 198.463L222.084 211.329L224.656 208.881L225.326 208.244L230.852 202.987L228.202 200.193L222.676 205.449L213.126 195.378L209.883 198.463ZM237.355 196.198L223.164 185.568L225.842 181.982L236.951 190.303L241.513 184.192L244.596 186.501L240.033 192.612L239.48 193.353L237.355 196.198ZM136.983 75.8262C137.67 75.1074 138.613 74.6575 139.666 74.5643C140.443 74.1357 141.135 74.0186 141.659 73.992C141.902 73.944 142.199 73.9041 142.549 73.9041C142.899 73.9041 143.225 73.9414 143.556 74.0159C143.829 74.0585 144.214 74.1384 144.67 74.3354C144.908 74.4365 145.125 74.5537 145.322 74.6815C145.592 74.7241 145.857 74.7933 146.108 74.8865C146.589 74.6389 147.121 74.4765 147.682 74.4206C148.328 74.0825 149.133 73.8216 150.073 73.8216C150.952 73.8216 151.738 74.0718 152.379 74.386C153.534 74.4206 154.578 74.8865 155.361 75.6292L155.393 75.6291L155.441 75.6287L155.483 75.6282C155.542 75.6275 155.6 75.6265 155.655 75.6265C158.092 75.6265 159.53 76.3639 160.358 77.1067C160.866 77.5273 161.285 77.9719 161.614 78.4378C162.287 78.4431 163.027 78.4484 163.784 78.4537L164.219 76.1936L167.129 75.8475C167.666 75.7836 167.952 75.741 168.179 75.7037L168.183 75.703L168.184 75.703C168.511 75.6527 168.82 75.6051 169.344 75.5733L169.758 75.5493L170.17 75.6105C171.698 75.8342 172.965 76.5503 173.777 77.5486L174.587 76.7925L175.915 76.6461C176.158 76.6195 176.412 76.6062 176.689 76.6062C177.309 76.6062 177.991 76.6435 178.659 76.8112C179.546 76.8911 180.997 77.0854 182.186 78.1103L182.691 78.5443L183.028 79.1193C183.209 79.4281 183.348 79.7396 183.452 80.043C184.241 80.8231 184.74 81.8826 184.796 83.0353C184.807 83.2429 184.81 84.6672 184.807 86.528C191.714 89.4431 198.648 93.2074 205.117 98.0738C200.716 87.9283 193.686 78.7519 184.158 71.6706C170.461 61.4799 154.073 57.4387 138.311 59.044C136.598 63.9823 135.903 69.642 135.885 75.528C136.256 75.5813 136.622 75.6771 136.983 75.8262ZM85.6083 96.2285C74.9735 118.702 78.1934 145.329 93.5763 164.63C95.6444 163.991 99.7487 162.524 105.093 159.598C100.441 152.77 83.8501 126.154 85.6083 96.2285ZM118.588 116.902C118.476 116.907 118.358 116.915 118.241 116.923C117.933 116.944 117.551 116.968 117.118 116.968C116.998 116.968 116.872 116.968 116.747 116.963C116.253 116.947 115.44 116.947 115.096 116.947C114.997 116.947 114.903 116.947 114.807 116.95C114.735 116.95 114.662 116.951 114.585 116.952L114.585 116.952C114.499 116.954 114.407 116.955 114.307 116.955C114.091 116.955 113.872 116.952 113.634 116.944H113.573C113.511 116.944 113.452 116.947 113.351 116.952C113.329 116.952 113.303 116.952 113.281 116.955C115.277 123.807 117.837 129.587 120.234 134.097L120.238 134.051L120.24 134.025L120.243 133.983L120.245 133.95C120.255 133.689 120.271 133.407 120.341 132.851C120.389 132.459 120.41 132.284 120.424 132.148L120.429 132.096L120.429 132.096L120.429 132.096C120.451 131.905 120.469 131.744 120.522 131.363C120.541 131.226 120.541 131.216 120.544 131.133L120.544 131.128C120.552 130.865 120.565 130.564 120.629 130.034C120.664 129.76 120.675 129.631 120.686 129.5L120.691 129.438L120.694 129.399L120.694 129.399C120.709 129.21 120.729 128.967 120.784 128.522C120.814 128.285 120.816 128.207 120.821 128.063L120.822 128.024L120.823 127.981C120.828 127.786 120.835 127.521 120.867 127.135C120.888 126.905 120.889 126.857 120.891 126.711L120.891 126.693C120.891 126.517 120.897 126.275 120.915 125.841C120.922 125.7 120.926 125.614 120.928 125.556L120.928 125.554L120.929 125.525L120.931 125.482V125.455C120.931 125.282 120.931 125.056 120.953 124.345C120.974 123.589 121.025 123.147 121.097 122.74C121.097 122.703 121.094 122.655 121.092 122.593C121.049 121.74 121.078 121.192 121.1 120.792V120.792V120.792V120.792V120.792V120.792V120.792V120.792V120.792V120.792V120.792V120.792L121.1 120.791L121.101 120.768C121.113 120.53 121.121 120.393 121.11 120.195C121.103 120.008 121.093 119.894 121.083 119.778L121.081 119.753C121.036 119.183 121.03 118.832 121.1 117.993C121.124 117.687 121.134 117.442 121.145 117.184C121.147 117.145 121.148 117.105 121.15 117.065C121.153 116.991 121.156 116.916 121.161 116.838C120.875 116.851 120.616 116.859 120.408 116.859C119.905 116.859 118.917 116.899 118.591 116.915L118.588 116.902ZM158.628 105.55C159.082 105.501 160.011 105.402 160.343 105.663L161.316 107.883C160.818 107.686 159.982 107.162 159.312 106.743C158.86 106.46 158.484 106.225 158.342 106.171C158.348 106.078 158.354 105.982 158.359 105.888L158.359 105.887L158.368 105.744C158.372 105.685 158.375 105.626 158.379 105.569C158.406 105.574 158.497 105.564 158.628 105.55L158.628 105.55ZM169.543 131.764L169.543 131.762V131.764L169.543 131.764ZM187.919 140.802C180.982 136.753 174.85 133.846 169.543 131.764C169.599 132.352 169.653 132.899 169.674 133.069C169.757 133.655 170.492 137.951 170.66 138.633C170.884 139.525 171.761 142.634 171.967 143.217C172.172 143.725 173.025 145.592 173.297 146.124C173.535 146.545 174.639 148.166 175.007 148.645C175.256 148.895 175.972 149.569 176.37 149.942C176.83 150.373 177.108 150.634 177.281 150.807C177.455 150.964 178.032 151.435 178.347 151.691C178.949 152.18 179.24 152.42 179.462 152.63L179.496 152.657L179.547 152.698L179.582 152.726C179.801 152.897 180.106 153.136 180.424 153.437C183.021 149.619 185.54 145.421 187.919 140.802ZM112.22 77.3542C112.878 77.0214 113.607 76.8537 114.387 76.8537C114.596 76.8537 114.772 76.8644 114.866 76.8724L115.28 76.9016L115.337 76.9055L115.338 76.9057L115.34 76.9058C115.775 76.9357 116.105 76.9584 116.568 76.9762H116.637H116.787C117.856 76.9762 118.729 77.2264 119.427 77.6284C119.678 77.3941 119.935 77.2104 120.17 77.0694C121.182 76.4597 122.305 76.3319 123.066 76.3319C123.56 76.3319 124.047 76.3825 124.512 76.4837C125.068 76.5556 126.192 76.7446 127.146 77.6976C127.48 78.0304 127.785 78.483 128.023 78.9994C128.041 79.0234 128.063 79.0447 128.084 79.0713C128.213 79.066 128.351 79.0633 128.493 79.0633C128.651 79.0633 128.792 79.066 128.937 79.074L129.108 79.0819C129.754 77.5246 130.925 76.8031 131.892 76.4704C132.015 76.4091 132.154 76.3426 132.319 76.276C132.295 70.4193 132.891 64.7037 134.422 59.5684C127.09 60.7557 119.961 63.1782 113.367 66.7855C112.22 70.7947 111.381 74.692 110.799 78.475C111.192 78.0144 111.673 77.6311 112.22 77.3569V77.3542ZM183.168 156.888C183.054 156.673 182.928 156.468 182.8 156.271V156.268C185.619 152.171 188.363 147.637 190.957 142.619C195.158 145.191 199.644 148.186 204.39 151.636C202.53 155.597 200.245 159.431 197.517 163.075C184.868 179.977 165.576 189.023 145.934 189.332C152.029 186.316 160.691 180.989 169.688 172.041C170.353 171.924 171.521 171.679 173.365 171.283C173.784 171.192 174.108 171.123 174.225 171.099C174.599 171.027 176.189 170.668 177.138 170.3C177.25 170.258 177.397 170.202 177.56 170.14C179.051 169.576 179.663 169.326 180.136 169.049L180.182 169.023L180.183 169.022C180.222 169 180.259 168.979 180.293 168.958L180.329 168.938C180.638 168.759 181.052 168.52 181.512 168.131C182.574 167.235 182.908 166.782 183.053 166.586L183.059 166.579C183.067 166.568 184.074 165.144 184.419 163.903C184.672 162.995 184.617 162.27 184.59 161.917V161.917L184.59 161.914C184.587 161.896 184.585 161.877 184.585 161.859C184.582 161.206 184.486 160.677 184.422 160.325C184.411 160.272 184.4 160.216 184.392 160.163C184.296 159.588 184.122 158.991 183.834 158.235C183.621 157.681 183.412 157.318 183.273 157.076L183.262 157.056C183.254 157.041 183.245 157.025 183.235 157.009C183.215 156.973 183.192 156.934 183.168 156.888ZM184.358 112.823L184.334 113.081C184.252 113.997 184.03 114.891 183.696 115.668L182.833 117.676L180.671 118.035C179.903 118.162 179.328 118.192 179.017 118.208L179.012 118.208C178.974 118.208 178.94 118.211 178.918 118.213C178.774 118.224 178.63 118.229 178.429 118.229C177.849 118.229 176.481 118.184 176.126 118.155C175.888 118.136 171.378 117.596 168.914 117.231C168.941 119.129 168.978 123.868 168.981 124.408C168.982 124.431 168.984 124.464 168.987 124.503C168.993 124.571 169.001 124.655 169.008 124.725C169.04 125.074 169.082 125.553 169.096 126.109C169.101 126.37 169.155 127.108 169.211 127.826C178.798 131.412 191.039 137.626 205.834 148.312C208.238 142.341 209.703 136.13 210.261 129.879C202.146 121.765 193.179 116.198 184.396 112.389L184.384 112.509L184.373 112.635L184.366 112.708L184.356 112.823H184.358ZM184.795 90.4434C192.693 93.8855 200.549 98.4697 207.545 104.587C209.722 111.554 210.714 118.846 210.484 126.143C202.168 118.289 193.134 112.843 184.343 109.073C184.319 108.658 184.298 108.235 184.293 107.883C184.282 107.194 184.33 106.54 184.381 105.849L184.381 105.847C184.387 105.76 184.393 105.675 184.399 105.59L184.399 105.586V105.586V105.586C184.415 105.369 184.431 105.155 184.442 104.941C184.477 104.35 184.536 102.601 184.621 100.006C184.634 99.6288 184.646 99.2572 184.658 98.9043L184.658 98.8981C184.691 97.9205 184.718 97.0871 184.736 96.6808C184.763 96.0738 184.784 93.3211 184.795 90.4434ZM109.823 153.214L109.823 153.213L109.823 153.213C109.938 153.098 110.034 152.997 110.128 152.899L110.132 152.894C110.42 152.589 110.78 152.207 111.389 151.693C111.533 151.572 111.638 151.473 111.767 151.353L111.79 151.331C112.116 151.025 112.525 150.641 113.257 150.135C113.66 149.856 113.679 149.84 113.922 149.627L114.007 149.552L114.083 149.485C114.135 149.439 114.192 149.389 114.256 149.334C114.467 149.153 114.652 149.009 114.82 148.892C114.988 148.679 115.125 148.52 115.253 148.384C115.282 148.339 115.317 148.28 115.362 148.205C115.889 147.343 116.423 146.27 116.525 146.025C116.757 145.447 116.982 144.936 117.297 144.263C117.401 144.042 117.441 143.941 117.519 143.738L117.559 143.635C117.629 143.455 117.716 143.233 117.847 142.929C117.933 142.729 118 142.58 118.056 142.455C118.171 142.2 118.187 142.16 118.312 141.787C118.422 141.46 118.483 141.257 118.542 141.06L118.56 141.001C118.624 140.79 118.691 140.569 118.796 140.27L118.865 140.07C118.923 139.907 119.002 139.65 119.103 139.301C115.9 133.875 112.001 125.929 109.332 115.964C108.923 115.679 108.562 115.333 108.249 114.921C107.237 113.816 107.119 112.531 107.077 112.065L107.076 112.064C107.052 111.79 107.036 111.606 107.023 111.449C107.019 111.402 107.015 111.359 107.012 111.318L107.012 111.316C107 111.17 106.989 111.045 106.964 110.831C106.903 110.267 106.905 109.908 106.908 109.647C106.908 109.535 106.908 109.463 106.905 109.351C106.884 108.802 106.929 108.407 106.956 108.17L106.956 108.164C106.956 108.15 106.958 108.137 106.961 108.124L106.962 108.118L106.963 108.11L106.964 108.103C106.895 107.64 106.847 107.104 106.975 106.306C106.993 106.199 107.001 106.086 107.011 105.953L107.018 105.872L107.023 105.799C107.035 105.644 107.048 105.471 107.071 105.278L107.077 105.232L107.089 105.148L107.101 105.06C105.612 94.611 105.738 82.5834 109.006 69.3711C102.761 73.4495 97.1124 78.662 92.3909 84.9713C91.5947 86.0362 90.8465 87.1197 90.125 88.2138C84.6554 118.283 101.487 147.503 107.245 156.394C107.501 155.923 107.875 155.289 108.455 154.645L108.447 154.65C109.026 154.007 109.342 153.693 109.822 153.215L109.822 153.214L109.823 153.214ZM160.242 173.248C161.055 173.173 161.976 173.091 162.548 173.045L162.551 173.056C162.834 173.035 163.125 173.008 163.414 172.979C151.788 183.356 141.37 187.684 137.765 188.97C129.407 188.057 121.148 185.536 113.463 181.333C117.842 180.169 124.576 177.858 132.055 173.437C132.421 173.466 132.702 173.485 132.889 173.493C133.001 173.498 133.102 173.503 133.196 173.507C133.286 173.511 133.369 173.514 133.447 173.516C133.893 173.532 134.096 173.543 134.593 173.58C134.74 173.591 134.863 173.602 134.975 173.612C135.288 173.642 135.646 173.674 136.106 173.674C136.378 173.674 136.659 173.663 136.99 173.639C137.899 173.575 138.395 173.48 138.92 173.379L138.925 173.378L139.011 173.361L139.013 173.361L139.015 173.36C139.098 173.344 139.188 173.326 139.285 173.309C140.231 173.136 141.012 172.963 141.69 172.699C142.404 173.226 143.392 173.764 144.571 173.908C145.041 173.964 145.442 173.99 145.835 173.99C146.085 173.99 146.29 173.978 146.461 173.968L146.532 173.964C146.602 173.958 146.676 173.953 146.759 173.95C146.981 173.942 148.106 173.9 148.763 173.844C148.969 173.833 149.629 173.828 149.987 173.828C150.631 173.825 150.901 173.823 151.141 173.804C151.403 173.783 152.558 173.706 152.779 173.698H152.691H152.68C152.693 173.698 153.84 173.678 154.442 173.618C154.503 173.614 154.608 173.609 154.731 173.603C154.845 173.597 154.976 173.59 155.102 173.584L155.102 173.584C155.231 173.578 155.354 173.572 155.451 173.567L155.662 173.557L155.665 173.557L155.675 173.556C155.851 173.548 155.999 173.541 156.085 173.535C156.397 173.517 157.803 173.439 158.19 173.421C158.449 173.407 158.96 173.365 160.242 173.248ZM154.507 173.612C154.486 173.614 154.464 173.616 154.442 173.618L154.415 173.62C154.449 173.617 154.48 173.614 154.507 173.612ZM154.607 173.599C154.576 173.603 154.543 173.608 154.507 173.612C154.553 173.607 154.587 173.602 154.607 173.599ZM123.78 172.655C123.746 172.65 123.71 172.645 123.672 172.639L123.505 172.616C122.754 172.512 121.619 172.355 120.863 172.209C120.463 172.131 120.077 172.042 119.704 171.956L119.596 171.932L119.58 171.928L119.579 171.928C119.185 171.836 118.814 171.75 118.511 171.697C118.004 171.607 117.258 171.415 116.08 171.112C115.331 170.917 114.402 170.678 113.982 170.593C112.844 170.361 112.112 170.028 111.628 169.807L111.595 169.792L111.594 169.792C111.438 169.721 111.341 169.677 111.249 169.645C111.171 169.618 111.155 169.613 111.088 169.597C110.193 169.368 109.653 169.049 108.972 168.54C108.847 168.447 108.766 168.394 108.654 168.319L108.654 168.319C108.291 168.08 107.901 167.808 107.454 167.348C106.327 166.52 105.926 165.463 105.72 164.709C105.589 164.23 105.512 163.852 105.466 163.498C101.512 165.559 98.2652 166.826 96.0527 167.568C98.9278 170.768 102.164 173.734 105.752 176.402C106.845 177.213 107.962 177.975 109.087 178.71C111.633 178.236 117.945 176.772 125.675 172.898C125.007 172.822 124.356 172.735 124.054 172.695C123.991 172.686 123.943 172.68 123.913 172.676C123.893 172.673 123.881 172.672 123.879 172.672L123.885 172.669C123.853 172.665 123.818 172.66 123.78 172.655Z" fill="white"/>
<path d="M180.729 96.5134C180.788 95.1371 180.807 83.6233 180.788 83.216C180.77 82.8087 180.342 82.7128 180.342 82.7128C180.342 82.7128 180.029 82.6356 179.679 82.5957C179.719 82.207 179.834 81.5867 179.562 81.1235C179.134 80.7561 177.849 80.7801 177.812 80.7215C177.78 80.6736 177.189 80.5884 176.684 80.5884C176.566 80.5884 176.452 80.5937 176.353 80.6044C176.043 80.8946 176.256 80.6044 175.963 81.4376C175.671 82.2709 175.789 82.3827 175.789 82.3827C175.789 82.3827 175.669 82.388 175.458 82.388C175.246 82.388 174.944 82.3827 174.584 82.3641C173.865 82.3241 173.106 82.2097 172.248 82.2097C171.391 82.2097 170.944 81.8609 170.944 81.8609L170.904 80.852C170.904 80.852 170.864 80.7162 170.749 80.2903C170.768 80.0001 170.244 79.6513 169.582 79.5528C168.94 79.5928 168.9 79.6487 167.596 79.8057C167.42 80.7162 167.5 82.4626 167.5 82.4626C167.5 82.4626 159.719 82.4226 158.61 82.3854C158.65 82.2682 158.706 82.4253 158.747 82.0553C158.787 81.6879 158.586 81.3498 158.469 80.9824C158.351 80.615 157.71 80.1039 157.71 80.1039C157.71 80.1039 157.277 79.6141 155.652 79.6141C155.567 79.6141 155.476 79.6141 155.382 79.6194C154.918 80.2663 154.808 80.3621 154.776 80.3621C154.763 80.3621 154.763 80.3462 154.757 80.3462C154.741 80.3462 154.682 80.4606 154.215 81.3019C153.865 80.8946 152.756 80.2743 152.756 80.2743V78.89C152.756 78.6051 152.526 78.3762 152.24 78.3762C152.24 78.3762 152.235 78.3762 152.232 78.3762L151.217 78.3895C151.217 78.3895 150.592 77.8145 150.068 77.8145C149.475 77.8145 148.978 78.3895 148.978 78.3895H148.133C147.89 78.3895 147.695 78.5838 147.695 78.8261V80.1971L145.05 80.1864L144.873 80.1758C144.873 80.1758 144.873 79.8856 144.833 79.8084C144.793 79.7312 144.815 79.5182 144.833 79.3239C144.852 79.1296 144.873 78.8979 144.793 78.7435C144.742 78.6397 144.716 78.6237 144.641 78.6237C144.603 78.6237 144.553 78.6291 144.483 78.6291C144.269 78.6291 144.016 78.5705 143.724 78.5705C143.433 78.5705 143.471 78.5519 143.471 78.5519C143.471 78.5519 143.471 78.4161 143.412 78.3203C143.353 78.2244 143.217 78.0674 143.08 78.0115C142.944 77.9529 142.915 77.9822 142.682 77.9236C142.629 77.9103 142.581 77.905 142.538 77.905C142.394 77.905 142.287 77.9635 142.108 77.9795C141.883 77.9981 141.795 77.9502 141.584 78.07C141.485 78.1259 141.215 78.6131 141.215 78.6131C141.215 78.6131 141.191 78.6184 141.138 78.6184C141.084 78.6184 141.002 78.6131 140.884 78.5945C140.652 78.5545 140.708 78.5945 140.261 78.5545C140.187 78.5492 140.125 78.5465 140.077 78.5465C139.831 78.5465 139.871 78.6131 139.871 78.6131C139.871 78.6131 139.853 78.8261 139.813 79.1748C139.772 79.5236 139.735 79.5049 139.695 79.835C139.655 80.1651 139.617 80.4367 139.617 80.4367C139.617 80.4367 139.112 80.631 138.859 80.7455C138.605 80.8626 138.354 81.017 138.041 81.2486C137.728 81.4802 137.728 81.443 137.4 81.616C137.068 81.789 136.855 82.0047 136.855 82.0047C136.855 82.0047 136.814 81.616 136.758 81.4243C136.7 81.23 136.622 81.1528 136.446 80.804C136.269 80.4553 136.269 80.3195 136.096 80.048C135.922 79.7765 135.863 79.7578 135.551 79.5821C135.414 79.5049 135.334 79.481 135.251 79.481C135.147 79.481 135.04 79.5209 134.81 79.5422C134.402 79.5821 134.538 79.7152 134.052 79.8909C133.565 80.0666 133.624 80.1225 133.234 80.2397C132.844 80.3568 132.825 80.5298 132.729 80.82C132.633 81.1102 132.748 81.246 132.729 81.4589C132.71 81.6719 132.846 81.9435 132.884 82.2523C132.924 82.5611 133.215 83.0083 133.215 83.0083C133.215 83.0083 132.983 83.1254 132.534 83.1441C132.384 83.1494 132.261 83.1521 132.136 83.1521C131.885 83.1521 131.62 83.1441 131.115 83.1441C130.736 83.1441 130.541 83.1494 130.388 83.1494C130.236 83.1494 130.124 83.1441 129.91 83.1254C129.482 83.0855 129.055 83.0855 128.705 83.0669C128.635 83.0642 128.561 83.0616 128.486 83.0616C128.178 83.0616 127.826 83.0855 127.5 83.0855C127.091 83.0855 126.351 83.0269 125.672 83.0083C124.991 82.9897 125.031 82.9125 125.031 82.9125C125.031 82.9125 125.049 82.6596 125.09 82.5238C125.13 82.388 125.09 82.2709 125.09 82.0979C125.09 81.9248 125.09 81.8663 125.049 81.7305C125.009 81.5947 124.873 81.5361 124.777 81.4004C124.715 81.3152 124.622 81.2992 124.563 81.2992C124.528 81.2992 124.504 81.3045 124.504 81.3045C124.614 81.2779 124.376 80.5964 124.304 80.5245C124.248 80.4686 123.836 80.4393 123.759 80.418C123.537 80.3595 123.291 80.3302 123.061 80.3302C122.722 80.3302 122.41 80.3888 122.238 80.4926C121.95 80.6656 122.1 80.9318 121.862 81.246C121.824 81.2353 121.782 81.2273 121.741 81.2273C121.701 81.2273 121.664 81.2327 121.627 81.246C121.512 81.2859 121.472 81.3817 121.49 81.5761C121.509 81.7704 121.49 81.9062 121.549 82.3721C121.608 82.8379 121.589 82.9338 121.589 82.9338C121.589 82.9338 120.908 82.8752 120.48 82.8566C120.339 82.8512 120.24 82.8486 120.154 82.8486C119.981 82.8486 119.847 82.8566 119.47 82.8566C118.906 82.8566 119.003 82.8752 118.439 82.8752C118.217 82.8752 117.998 82.8752 117.776 82.8752C117.875 82.5424 117.632 82.2017 117.677 81.8583C117.693 81.7438 117.707 81.624 117.685 81.5095C117.592 81.0117 117.183 80.9718 116.782 80.9718C116.707 80.9718 116.635 80.9718 116.563 80.9718C116.523 80.9718 116.483 80.9718 116.443 80.9718C115.732 80.9478 115.299 80.9105 114.588 80.8626C114.522 80.8573 114.452 80.8546 114.383 80.8546C114.257 80.8546 114.134 80.8706 114.025 80.9238C113.846 81.0144 113.731 81.2034 113.68 81.3977C113.616 81.648 113.632 81.9222 113.656 82.1751C113.693 82.5584 113.517 82.8566 113.496 82.8885C113.498 82.8805 113.496 82.8539 113.301 82.8539C113.068 82.8539 112.755 82.8725 112.755 82.8725C112.755 82.8725 112.56 83.0855 112.445 83.2399C112.328 83.3943 112.213 83.6659 112.037 83.996C111.86 84.3261 111.86 84.5577 111.687 84.965C111.513 85.3723 111.609 85.6252 111.454 86.1869C111.299 86.7486 111.414 86.9243 111.318 87.4674C111.222 88.0105 111.259 88.0478 111.24 88.6121C111.222 89.1739 111.2 89.8713 111.163 90.3559C111.123 90.8404 111.104 90.9362 111.104 91.229C111.104 91.5219 111.123 95.3394 111.123 95.8239C111.123 96.3084 111.142 97.1603 111.123 97.6076C111.104 98.0521 111.2 98.8082 111.219 99.4285C111.238 100.049 111.259 100.067 111.278 100.709C111.296 101.348 111.318 101.582 111.318 102.221C111.318 102.86 111.318 102.977 111.278 103.502C111.238 104.026 111.182 104.489 111.182 104.684C111.182 104.878 111.085 105.48 111.045 105.788C111.005 106.097 111.005 106.467 110.928 106.952C110.85 107.436 110.946 107.418 110.968 107.979C110.987 108.541 110.89 108.695 110.909 109.22C110.928 109.744 110.89 109.88 110.949 110.421C111.008 110.964 111.008 111.081 111.067 111.72C111.125 112.359 111.24 112.204 111.358 112.398C111.476 112.593 111.59 112.806 112.234 112.923C112.486 112.968 112.67 112.981 112.844 112.981C113.071 112.981 113.274 112.96 113.573 112.96C113.629 112.96 113.691 112.96 113.752 112.963C113.974 112.968 114.153 112.971 114.308 112.971C114.618 112.971 114.834 112.963 115.093 112.963C115.484 112.963 116.32 112.963 116.884 112.981C116.961 112.984 117.039 112.984 117.116 112.984C117.589 112.984 118.019 112.939 118.42 112.923C118.888 112.904 119.839 112.864 120.405 112.864C120.972 112.864 122.137 112.787 122.8 112.689C123.462 112.59 123.518 112.611 123.909 112.516C124.299 112.42 124.277 112.361 124.531 112.207C124.785 112.052 124.959 111.954 125.057 111.858C125.154 111.762 125.389 111.626 125.621 111.315C125.854 111.006 125.816 111.043 125.875 110.791C125.934 110.538 125.993 110.306 126.03 110.053C126.07 109.8 126.108 109.609 126.126 109.337C126.145 109.065 126.204 108.911 126.263 108.621C126.321 108.331 126.34 108.312 126.439 108.041C126.535 107.769 126.535 107.788 126.671 107.575C126.808 107.362 126.808 107.458 127.08 107.322C127.353 107.186 127.548 107.149 128.072 107.013C128.598 106.877 128.654 106.896 129.14 106.683C129.627 106.47 129.782 106.276 130.132 105.967C130.482 105.655 130.386 105.637 130.618 105.192C130.85 104.747 130.754 104.766 130.872 104.3C130.989 103.834 130.949 103.856 130.968 103.526C130.987 103.195 130.968 102.865 130.968 102.865C130.968 102.865 130.968 102.865 130.973 102.865C130.992 102.865 131.08 102.855 131.473 102.748C131.978 102.612 132.251 102.631 132.796 102.535C133.341 102.439 133.418 102.399 133.886 102.282C134.354 102.165 134.177 102.224 134.45 102.107C134.722 101.989 135.032 101.894 135.032 101.894C135.032 101.894 135.032 101.872 135.048 101.872C135.067 101.872 135.104 101.899 135.187 102.011C135.342 102.224 135.441 102.301 135.596 102.671C135.751 103.041 135.714 103.137 135.869 103.523C136.024 103.912 135.965 104.162 136.024 104.588C136.082 105.014 135.983 105.014 135.965 105.634C135.946 106.254 135.965 106.371 135.869 106.622C135.772 106.875 135.751 107.146 135.615 107.415C135.478 107.686 135.46 107.705 135.382 107.977C135.305 108.248 135.342 108.248 135.342 108.403C135.342 108.557 135.401 109.254 135.401 109.254C135.401 109.254 134.875 109.409 134.642 109.467C134.41 109.526 134.447 109.585 134.038 109.662C133.766 109.713 133.428 109.798 133.026 109.915C132.422 110.09 132.462 110.146 131.703 110.381C130.944 110.612 131.217 110.612 130.653 110.865C130.089 111.118 130.166 111.059 129.525 111.291C128.884 111.523 129.039 111.504 128.357 111.794C127.676 112.084 128.085 111.989 127.58 112.279C127.075 112.569 127.23 112.532 126.997 112.686C126.765 112.84 126.511 113.112 126.22 113.461C125.929 113.809 125.83 114.235 125.557 114.877C125.285 115.516 125.362 115.497 125.245 116.176C125.127 116.855 125.167 117.339 125.09 118.308C125.012 119.277 125.071 119.142 125.108 120.015C125.148 120.888 125.031 121.197 125.09 122.4C125.148 123.601 124.993 123.02 124.953 124.455C124.913 125.89 124.953 125.171 124.913 126.026C124.873 126.878 124.913 126.801 124.854 127.48C124.796 128.158 124.854 128.217 124.758 129.01C124.662 129.806 124.699 129.726 124.603 130.522C124.507 131.318 124.585 131.22 124.486 131.917C124.389 132.615 124.427 132.421 124.309 133.352C124.192 134.281 124.291 134.013 124.154 134.982C124.018 135.951 123.959 136.009 123.746 137.172C123.532 138.336 123.513 138.296 123.414 138.879C123.318 139.459 123.16 139.694 122.947 140.428C122.733 141.166 122.752 141.089 122.578 141.592C122.401 142.095 122.364 142.308 122.11 143.064C121.856 143.82 121.819 143.839 121.528 144.517C121.236 145.196 121.215 145.351 120.924 145.971C120.633 146.591 120.438 147.036 120.242 147.52C120.047 148.005 119.387 149.304 118.784 150.292C118.18 151.279 118.452 150.736 117.888 151.474C117.325 152.211 117.461 151.862 116.876 152.365C116.293 152.869 116.293 152.908 115.534 153.433C114.775 153.957 114.621 154.208 113.979 154.751C113.338 155.294 113.124 155.584 112.657 156.05C112.189 156.516 111.938 156.766 111.43 157.33C110.925 157.892 110.671 158.531 110.399 158.96C110.126 159.385 109.931 159.987 109.776 160.413C109.621 160.839 109.445 161.827 109.426 162.351C109.407 162.876 109.407 163.03 109.581 163.669C109.757 164.308 109.854 164.036 110.222 164.462C110.591 164.888 110.749 164.888 111.371 165.354C111.994 165.82 111.839 165.626 112.598 165.897C113.357 166.169 113.725 166.477 114.775 166.69C115.826 166.903 118.452 167.641 119.211 167.777C119.97 167.912 120.825 168.144 121.624 168.301C122.423 168.458 123.901 168.65 124.446 168.727C124.991 168.804 126.976 169.057 127.404 169.057C127.831 169.057 132.208 169.464 133.066 169.502C133.921 169.542 134.134 169.542 134.893 169.598C135.43 169.637 135.695 169.68 136.098 169.68C136.267 169.68 136.456 169.672 136.702 169.656C137.539 169.598 137.811 169.52 138.551 169.385C139.291 169.249 139.914 169.113 140.283 168.959C140.652 168.804 140.595 168.804 140.905 168.493C141.218 168.184 141.159 168.163 141.237 167.968C141.314 167.774 141.277 167.308 141.255 167.058C141.237 166.805 141.178 166.749 141.159 166.206C141.141 165.663 141.042 165.644 140.964 165.277C140.887 164.909 140.555 163.823 140.382 163.416C140.152 163.304 139.834 163.152 139.698 162.817C139.593 162.564 139.735 162.157 139.732 161.837C139.647 161.635 139.569 161.454 139.508 161.321C139.275 160.818 139.254 160.836 139.139 160.469C139.022 160.102 138.907 159.673 138.848 159.268C138.789 158.861 138.634 158.358 138.557 157.738C138.479 157.117 138.38 156.614 138.284 155.994C138.188 155.374 138.07 155.315 137.857 154.735C137.643 154.154 137.624 154.21 137.41 153.649C137.197 153.087 137.138 153.01 136.983 152.602C136.828 152.195 136.729 151.886 136.593 151.556C136.456 151.226 136.32 150.859 136.184 150.451C136.048 150.044 135.815 149.464 135.735 149.016C135.657 148.572 135.599 148.396 135.58 147.68C135.561 146.964 135.599 146.751 135.676 146.032C135.754 145.316 135.754 145.005 135.812 144.326C135.871 143.647 135.812 143.317 135.871 142.755C135.93 142.193 135.871 142.116 135.911 141.36C135.951 140.604 135.97 140.274 136.029 139.539C136.088 138.802 136.048 138.629 136.088 137.91C136.128 137.194 136.069 136.786 136.069 135.99C136.069 135.195 136.088 134.904 136.088 134.401C135.855 134.186 135.655 133.847 135.692 133.528C135.716 133.318 136.2 132.644 136.243 132.556C136.261 131.917 136.796 131.569 137.076 131.569C137.084 131.569 137.092 131.569 137.098 131.569C137.37 131.587 137.507 132.362 137.507 132.926C137.779 133.195 137.899 133.4 137.881 133.605C137.857 133.863 137.75 134.212 137.408 134.42C137.389 135 137.485 136.96 137.525 137.947C137.565 138.935 137.544 138.898 137.525 139.848C137.507 140.798 137.544 140.721 137.525 141.341C137.507 141.962 137.485 142.233 137.485 143.066C137.485 143.9 137.408 143.841 137.33 144.443C137.253 145.044 137.194 145.295 137.116 145.955C137.039 146.615 137.098 146.479 137.098 147.156C137.098 147.832 137.156 147.93 137.253 148.551C137.349 149.171 137.448 149.578 137.699 150.371C137.953 151.167 137.816 150.875 138.068 151.495C138.322 152.115 138.65 152.967 138.808 153.414C138.963 153.859 139.08 154.229 139.198 154.615C139.316 155.004 139.452 155.76 139.588 156.359C139.724 156.96 139.764 157.618 139.821 158.025C139.879 158.432 140.13 159.497 140.267 159.867C140.403 160.235 140.753 160.895 141.007 161.361C141.341 161.502 141.702 161.734 141.814 162.042C141.939 162.383 141.779 162.764 141.766 163.105C141.862 163.24 142.156 163.783 142.33 164.151C142.503 164.518 142.583 164.867 142.661 165.16C142.738 165.45 142.915 165.934 142.992 166.4C143.07 166.866 143.129 167.311 143.129 167.465C143.129 167.62 143.147 168.181 143.206 168.511C143.265 168.841 144.256 169.848 145.055 169.946C145.394 169.986 145.632 169.999 145.833 169.999C146.102 169.999 146.308 169.976 146.61 169.965C147.137 169.946 147.992 169.906 148.438 169.869C148.884 169.829 150.578 169.85 150.829 169.829C151.083 169.81 152.502 169.712 152.678 169.712C152.855 169.712 153.905 169.672 154.041 169.653C154.177 169.635 155.519 169.576 155.85 169.558C156.181 169.539 157.6 169.462 157.99 169.44C158.381 169.422 161.004 169.169 162.231 169.073C163.457 168.977 164.895 168.783 165.44 168.706C165.985 168.628 168.067 168.261 168.767 168.163C169.467 168.067 173.162 167.252 173.475 167.194C173.785 167.135 175.089 166.826 175.693 166.592C176.297 166.36 177.774 165.817 178.105 165.623C178.437 165.429 178.669 165.314 178.923 165.098C179.177 164.885 179.663 164.46 179.818 164.247C179.973 164.034 180.46 163.2 180.558 162.852C180.655 162.503 180.577 162.29 180.577 161.901C180.577 161.513 180.5 161.185 180.441 160.836C180.382 160.488 180.246 160.08 180.091 159.673C179.936 159.266 179.818 159.13 179.623 158.763C179.428 158.395 179.097 157.967 178.806 157.581C178.514 157.192 178.124 156.824 177.774 156.457C177.424 156.09 176.938 155.778 176.705 155.547C176.473 155.315 174.838 154.035 174.469 153.667C174.1 153.3 172.347 151.689 171.997 151.303C171.647 150.915 170.052 148.59 169.739 147.989C169.427 147.387 168.475 145.313 168.222 144.674C167.968 144.036 166.976 140.468 166.763 139.616C166.549 138.764 165.75 134.052 165.694 133.608C165.635 133.163 165.403 130.624 165.381 130.293C165.363 129.963 165.109 126.998 165.09 126.223C165.071 125.448 164.972 124.828 164.972 124.458C164.972 124.088 164.914 117.268 164.895 116.647C164.876 116.027 164.777 115.833 164.719 115.465C164.66 115.098 164.35 114.728 164.115 114.185C163.882 113.642 163.725 113.642 163.356 113.216C162.987 112.79 162.538 112.595 162.169 112.287C161.801 111.975 160.614 111.413 160.165 111.201C159.719 110.988 157.248 110.037 156.78 109.864C156.312 109.688 154.875 109.262 154.33 109.068C154.33 108.951 154.311 108.506 154.311 108.312C154.311 108.118 154.292 107.402 154.292 107.053C154.292 106.704 154.388 104.803 154.469 104.3C154.546 103.797 154.872 103.776 154.99 103.563C155.107 103.35 155.436 102.847 155.594 102.341C155.749 101.838 155.559 101.739 155.54 101.39C155.521 101.042 155.308 100.81 155.131 100.44C155.147 100.44 155.163 100.437 155.185 100.437C155.535 100.437 156.657 100.744 157.117 100.965C157.603 101.196 158.752 101.643 159.062 101.643C159.372 101.643 162.252 102.194 162.466 102.293C162.68 102.389 163.244 102.477 163.439 102.865C163.634 103.254 163.885 104.164 163.944 104.532C164.002 104.899 165.149 108.892 165.266 109.494C165.384 110.096 165.694 111.238 165.793 111.509C165.889 111.781 166.397 112.343 166.784 112.556C167.174 112.769 167.23 112.864 168.438 113.117C169.643 113.37 176.182 114.163 176.433 114.182C176.649 114.198 177.918 114.243 178.429 114.243C178.512 114.243 178.576 114.243 178.611 114.241C178.864 114.222 179.311 114.222 180.011 114.105C180.128 113.833 180.283 113.368 180.342 112.729C180.401 112.09 180.46 111.507 180.46 111.198C180.46 110.889 180.305 109.164 180.283 107.961C180.265 106.76 180.379 105.732 180.438 104.723C180.497 103.715 180.671 97.9004 180.729 96.5241V96.5134ZM142.49 105.892C142.012 106.539 141.207 107.199 141.207 107.199C141.207 107.199 140.812 106.39 140.737 106.02C140.654 105.599 140.627 105.091 140.627 105.091C140.627 105.091 140.521 103.579 141.06 103.329C141.157 103.283 141.277 103.265 141.408 103.265C142.1 103.265 143.161 103.773 143.161 103.773C143.161 103.773 142.99 105.219 142.49 105.895V105.892ZM147.735 98.3716C147.65 98.3716 147.628 98.3849 147.628 98.3849C147.628 98.3849 147.543 97.8338 147.438 97.6235C147.332 97.4132 147.267 97.4132 147.099 97.2854C146.928 97.1577 146.738 96.9686 146.506 96.8835C146.273 96.7983 146.06 96.777 145.678 96.7344C145.314 96.6944 145.373 96.6918 145.098 96.6918C144.929 96.6918 144.764 96.7131 144.601 96.753C143.965 96.9127 144.181 96.8648 143.874 97.0938C143.62 97.2854 143.62 97.368 143.364 97.7487C143.233 97.943 143.137 98.1879 143.072 98.3796C143.019 98.5393 142.869 98.6458 142.706 98.6458C142.685 98.6458 142.661 98.6458 142.64 98.6405C142.554 98.6245 142.463 98.6085 142.388 98.5952C142.287 98.5766 142.062 98.5553 141.841 98.5367C141.579 98.5154 141.442 98.2145 141.6 98.0042C141.662 97.9217 141.72 97.8498 141.763 97.8072C141.913 97.6581 141.977 97.5357 142.273 97.0911C142.57 96.6465 142.509 96.6119 142.741 96.2951C142.974 95.9783 143.11 95.8 143.342 95.5045C143.575 95.209 143.831 94.988 144.085 94.8842C144.2 94.8363 144.342 94.8229 144.494 94.8229C144.676 94.8229 144.871 94.8416 145.05 94.8416C145.378 94.8416 145.549 94.7564 145.91 94.7351C145.921 94.7351 145.931 94.7351 145.945 94.7351C146.298 94.7351 146.685 95.0439 146.974 95.1238C147.27 95.209 147.944 95.8372 148.2 96.0289C148.454 96.2206 148.454 96.5454 148.71 96.8196C148.964 97.0938 148.986 97.179 149.199 97.4319C149.41 97.6848 149.389 97.8551 149.539 98.1719C149.688 98.4887 149.226 98.6165 149.226 98.6165C149.226 98.6165 149.034 98.5739 148.758 98.5313C148.483 98.4887 148.419 98.4674 148.058 98.4035C147.903 98.3769 147.805 98.3689 147.74 98.3689L147.735 98.3716ZM150.335 106.614C150.172 107.271 149.921 107.881 149.921 107.881C149.921 107.881 149.194 106.861 148.772 106.041C148.427 105.376 148.371 104.878 148.371 104.878C148.371 104.878 148.344 104.401 148.454 104.01C148.545 103.688 148.775 103.44 148.775 103.44C148.775 103.44 149.563 103.462 149.985 103.904C150.45 104.388 150.557 105.301 150.557 105.301C150.557 105.301 150.49 105.983 150.332 106.614H150.335Z" fill="#C9DBFF"/>
</svg>
