<svg width="109" height="37" viewBox="0 0 109 37" fill="none" xmlns="http://www.w3.org/2000/svg">
<g clip-path="url(#clip0_1405_16650)">
<path d="M100.048 0.265742H9.25374C8.92278 0.265742 8.5958 0.265742 8.26572 0.267547C7.98941 0.269352 7.7153 0.274596 7.43634 0.279009C6.83031 0.286141 6.2257 0.339457 5.62777 0.438495C5.03068 0.539689 4.45229 0.730467 3.91217 1.00438C3.37271 1.28061 2.87979 1.63954 2.4513 2.06815C2.02055 2.49556 1.66149 2.98958 1.38792 3.53123C1.1136 4.0718 0.923384 4.65106 0.823844 5.24903C0.723357 5.84623 0.669284 6.45032 0.662111 7.05588C0.653735 7.3326 0.652851 7.61023 0.648438 7.88698V28.7482C0.652851 29.0285 0.653735 29.2999 0.662111 29.5803C0.669287 30.1858 0.723359 30.7898 0.823844 31.387C0.923109 31.9853 1.11334 32.5649 1.38792 33.1057C1.66137 33.6456 2.02048 34.1376 2.4513 34.5627C2.87817 34.9932 3.37141 35.3523 3.91217 35.6265C4.45229 35.9011 5.03061 36.093 5.62777 36.1958C6.2258 36.294 6.83034 36.3474 7.43634 36.3553C7.7153 36.3615 7.98941 36.365 8.26572 36.365C8.59579 36.3668 8.9228 36.3668 9.25374 36.3668H100.048C100.372 36.3668 100.702 36.3668 101.026 36.365C101.301 36.365 101.583 36.3615 101.858 36.3553C102.463 36.3478 103.067 36.2944 103.663 36.1958C104.263 36.0923 104.843 35.9004 105.386 35.6265C105.926 35.3522 106.419 34.993 106.845 34.5627C107.275 34.136 107.635 33.6443 107.912 33.1057C108.184 32.5645 108.373 31.985 108.47 31.387C108.571 30.7898 108.627 30.1858 108.638 29.5803C108.641 29.2999 108.641 29.0285 108.641 28.7482C108.648 28.4203 108.648 28.0942 108.648 27.761V8.87235C108.648 8.54184 108.648 8.21397 108.641 7.88698C108.641 7.61023 108.641 7.3326 108.638 7.05585C108.627 6.45024 108.571 5.84628 108.47 5.24899C108.372 4.65137 108.184 4.07215 107.912 3.53119C107.355 2.44552 106.471 1.56179 105.386 1.0043C104.843 0.731056 104.262 0.540327 103.663 0.438414C103.067 0.33894 102.463 0.285605 101.858 0.278883C101.583 0.274479 101.301 0.26919 101.026 0.26743C100.702 0.265625 100.372 0.265742 100.048 0.265742Z" fill="#A6A6A6"/>
<path d="M8.27127 35.5763C7.99629 35.5763 7.72795 35.5728 7.45512 35.5667C6.88994 35.5593 6.32609 35.5101 5.76817 35.4195C5.24795 35.3299 4.74399 35.1632 4.27292 34.925C3.80617 34.6887 3.38046 34.3789 3.01209 34.0075C2.63839 33.6404 2.32727 33.2146 2.09106 32.7471C1.85224 32.2765 1.68696 31.7721 1.60098 31.2514C1.50814 30.692 1.4579 30.1263 1.45071 29.5592C1.44499 29.3688 1.4375 28.7351 1.4375 28.7351V7.88622C1.4375 7.88622 1.44548 7.2622 1.45076 7.07887C1.45764 6.5127 1.50758 5.94787 1.60015 5.38928C1.68629 4.86719 1.85169 4.36132 2.09064 3.88919C2.32599 3.42196 2.63538 2.9959 3.00683 2.6275C3.37786 2.25561 3.80494 1.94422 4.27248 1.7047C4.74247 1.46723 5.24547 1.30174 5.76465 1.21378C6.32439 1.12223 6.89021 1.07273 7.45734 1.06571L8.27171 1.05469H101.023L101.847 1.06615C102.409 1.07283 102.97 1.12188 103.524 1.21289C104.049 1.30196 104.557 1.4686 105.032 1.70734C105.969 2.19005 106.731 2.95375 107.212 3.89139C107.447 4.36026 107.61 4.862 107.695 5.37959C107.789 5.94276 107.841 6.51203 107.852 7.08284C107.855 7.33844 107.855 7.61299 107.855 7.88622C107.862 8.22467 107.862 8.5468 107.862 8.87159V27.7603C107.862 28.0882 107.862 28.4081 107.855 28.7307C107.855 29.0242 107.855 29.293 107.851 29.5697C107.84 30.1304 107.789 30.6895 107.697 31.2426C107.613 31.767 107.448 32.2753 107.209 32.7498C106.972 33.2123 106.662 33.6343 106.293 34.0004C105.924 34.3739 105.498 34.6855 105.03 34.9233C104.556 35.1633 104.048 35.3306 103.524 35.4195C102.967 35.5106 102.403 35.5598 101.837 35.5667C101.573 35.5728 101.296 35.5763 101.027 35.5763L100.049 35.5781L8.27127 35.5763Z" fill="black"/>
<path d="M23.0073 18.5898C23.017 17.8365 23.2171 17.0979 23.589 16.4427C23.9608 15.7875 24.4924 15.237 25.1342 14.8425C24.7265 14.2602 24.1886 13.781 23.5633 13.4429C22.938 13.1049 22.2425 12.9173 21.532 12.8951C20.0165 12.736 18.5472 13.802 17.7749 13.802C16.9877 13.802 15.7986 12.9109 14.5181 12.9372C13.6899 12.964 12.8828 13.2048 12.1753 13.6363C11.4678 14.0678 10.8842 14.6751 10.4812 15.3992C8.73573 18.4212 10.0377 22.8626 11.7097 25.3054C12.5463 26.5016 13.524 27.8377 14.8033 27.7903C16.0551 27.7384 16.5227 26.9921 18.0338 26.9921C19.5308 26.9921 19.9695 27.7903 21.2747 27.7602C22.618 27.7384 23.4644 26.5587 24.2716 25.3512C24.8727 24.4989 25.3352 23.5569 25.642 22.5602C24.8616 22.2301 24.1956 21.6776 23.7271 20.9715C23.2585 20.2655 23.0082 19.4372 23.0073 18.5898Z" fill="white"/>
<path d="M20.5434 11.2871C21.2758 10.4078 21.6366 9.27772 21.5493 8.13672C20.4303 8.25425 19.3967 8.78905 18.6543 9.63456C18.2914 10.0476 18.0134 10.5282 17.8363 11.0487C17.6592 11.5693 17.5864 12.1196 17.6221 12.6683C18.1818 12.6741 18.7355 12.5528 19.2415 12.3135C19.7475 12.0743 20.1927 11.7233 20.5434 11.2871Z" fill="white"/>
<path d="M38.8301 24.7603H34.558L33.5321 27.7896H31.7227L35.769 16.582H37.649L41.6954 27.7896H39.8551L38.8301 24.7603ZM35.0005 23.3625H38.3868L36.7174 18.4462H36.6707L35.0005 23.3625Z" fill="white"/>
<path d="M50.4314 23.7043C50.4314 26.2435 49.0724 27.875 47.0214 27.875C46.5019 27.9021 45.9852 27.7825 45.5305 27.5296C45.0758 27.2768 44.7015 26.901 44.4504 26.4454H44.4116V30.4926H42.7344V19.6183H44.3579V20.9773H44.3887C44.6513 20.5238 45.032 20.15 45.4901 19.8957C45.9483 19.6413 46.4668 19.5159 46.9906 19.5328C49.0644 19.5328 50.4314 21.1721 50.4314 23.7043ZM48.7075 23.7043C48.7075 22.05 47.8525 20.9623 46.5481 20.9623C45.2666 20.9623 44.4046 22.0729 44.4046 23.7043C44.4046 25.3507 45.2666 26.4533 46.5481 26.4533C47.8525 26.4533 48.7075 25.3736 48.7075 23.7043Z" fill="white"/>
<path d="M59.4275 23.7043C59.4275 26.2435 58.0685 27.875 56.0175 27.875C55.498 27.9021 54.9813 27.7825 54.5266 27.5296C54.0719 27.2768 53.6976 26.901 53.4465 26.4454H53.4077V30.4926H51.7305V19.6182H53.354V20.9773H53.3848C53.6474 20.5238 54.028 20.15 54.4862 19.8956C54.9443 19.6413 55.4629 19.5159 55.9866 19.5328C58.0605 19.5328 59.4275 21.1721 59.4275 23.7043ZM57.7036 23.7043C57.7036 22.05 56.8486 20.9623 55.5442 20.9623C54.2627 20.9623 53.4007 22.0729 53.4007 23.7043C53.4007 25.3507 54.2627 26.4533 55.5442 26.4533C56.8486 26.4533 57.7036 25.3736 57.7036 23.7043Z" fill="white"/>
<path d="M65.3732 24.6663C65.4975 25.7777 66.5772 26.5074 68.0526 26.5074C69.4663 26.5074 70.4834 25.7776 70.4834 24.7755C70.4834 23.9056 69.87 23.3847 68.4175 23.0278L66.965 22.6778C64.907 22.1808 63.9515 21.2183 63.9515 19.6565C63.9515 17.7228 65.6367 16.3945 68.0297 16.3945C70.3979 16.3945 72.0214 17.7228 72.076 19.6565H70.3829C70.2815 18.538 69.357 17.8629 68.0058 17.8629C66.6547 17.8629 65.7301 18.546 65.7301 19.5402C65.7301 20.3325 66.3207 20.7988 67.7652 21.1557L69 21.4589C71.2995 22.0027 72.2549 22.9264 72.2549 24.5657C72.2549 26.6625 70.5847 27.9757 67.9283 27.9757C65.4428 27.9757 63.7647 26.6934 63.6562 24.6662L65.3732 24.6663Z" fill="white"/>
<path d="M75.8733 17.6836V19.6173H77.4271V20.9456H75.8733V25.4503C75.8733 26.1501 76.1844 26.4762 76.8675 26.4762C77.0519 26.473 77.2361 26.46 77.4192 26.4374V27.7577C77.1121 27.815 76.8 27.841 76.4876 27.8352C74.8333 27.8352 74.1881 27.2139 74.1881 25.6291V20.9456H73V19.6173H74.1881V17.6836H75.8733Z" fill="white"/>
<path d="M78.3281 23.7021C78.3281 21.1312 79.8423 19.5156 82.2035 19.5156C84.5727 19.5156 86.0798 21.1311 86.0798 23.7021C86.0798 26.2802 84.5806 27.8887 82.2035 27.8887C79.8273 27.8887 78.3281 26.2802 78.3281 23.7021ZM84.3708 23.7021C84.3708 21.9385 83.5626 20.8976 82.2035 20.8976C80.8444 20.8976 80.0371 21.9465 80.0371 23.7021C80.0371 25.4728 80.8444 26.5058 82.2035 26.5058C83.5626 26.5058 84.3708 25.4728 84.3708 23.7021Z" fill="white"/>
<path d="M87.4609 19.6182H89.0606V21.009H89.0994C89.2077 20.5746 89.4621 20.1907 89.8201 19.9219C90.178 19.653 90.6176 19.5156 91.0649 19.5327C91.2582 19.532 91.451 19.553 91.6396 19.5953V21.1641C91.3955 21.0895 91.141 21.0553 90.886 21.0627C90.6423 21.0529 90.3994 21.0958 90.1739 21.1887C89.9484 21.2815 89.7457 21.4221 89.5796 21.6007C89.4136 21.7793 89.2882 21.9917 89.212 22.2234C89.1358 22.455 89.1106 22.7004 89.1382 22.9427V27.7894H87.4609L87.4609 19.6182Z" fill="white"/>
<path d="M99.3748 25.3873C99.1492 26.8707 97.7046 27.8887 95.8564 27.8887C93.4793 27.8887 92.0039 26.296 92.0039 23.7409C92.0039 21.1779 93.4873 19.5156 95.7859 19.5156C98.0466 19.5156 99.4683 21.0686 99.4683 23.5461V24.1208H93.697V24.2222C93.6704 24.5229 93.708 24.8258 93.8075 25.1109C93.9069 25.3959 94.0659 25.6566 94.2738 25.8755C94.4817 26.0944 94.7338 26.2665 95.0133 26.3805C95.2929 26.4945 95.5935 26.5477 95.8952 26.5366C96.2915 26.5738 96.6893 26.482 97.0293 26.2749C97.3693 26.0678 97.6333 25.7565 97.7822 25.3873L99.3748 25.3873ZM93.705 22.9486H97.7901C97.8052 22.6782 97.7642 22.4076 97.6697 22.1538C97.5752 21.9 97.4293 21.6685 97.2411 21.4737C97.0529 21.279 96.8265 21.1253 96.5761 21.0222C96.3257 20.9191 96.0566 20.8689 95.7859 20.8747C95.5127 20.8731 95.242 20.9256 94.9892 21.0291C94.7365 21.1327 94.5068 21.2853 94.3133 21.4781C94.1198 21.6709 93.9665 21.9001 93.8621 22.1525C93.7576 22.4049 93.7043 22.6754 93.705 22.9486Z" fill="white"/>
<path d="M34.7889 8.14283C35.1406 8.1176 35.4934 8.17072 35.822 8.29837C36.1507 8.42601 36.4469 8.625 36.6893 8.88098C36.9317 9.13696 37.1142 9.44355 37.2238 9.77863C37.3334 10.1137 37.3672 10.4689 37.3229 10.8187C37.3229 12.5391 36.393 13.5281 34.7889 13.5281H32.8438V8.14283H34.7889ZM33.6802 12.7665H34.6955C34.9468 12.7815 35.1982 12.7403 35.4316 12.6459C35.6649 12.5515 35.8743 12.4062 36.0444 12.2207C36.2145 12.0351 36.3411 11.814 36.415 11.5734C36.4889 11.3328 36.5082 11.0787 36.4715 10.8297C36.5055 10.5816 36.4843 10.3291 36.4092 10.0902C36.3342 9.85137 36.2073 9.63206 36.0376 9.448C35.8678 9.26395 35.6595 9.11972 35.4275 9.02564C35.1954 8.93157 34.9455 8.88998 34.6955 8.90385H33.6802V12.7665Z" fill="white"/>
<path d="M38.2708 11.4954C38.2452 11.2283 38.2758 10.9588 38.3605 10.7042C38.4452 10.4497 38.5821 10.2156 38.7626 10.0171C38.943 9.81853 39.163 9.6599 39.4084 9.55134C39.6537 9.44279 39.919 9.38672 40.1873 9.38672C40.4556 9.38672 40.721 9.44279 40.9663 9.55134C41.2117 9.6599 41.4316 9.81853 41.6121 10.0171C41.7925 10.2156 41.9295 10.4497 42.0142 10.7042C42.0989 10.9588 42.1294 11.2283 42.1039 11.4954C42.1299 11.7627 42.0997 12.0325 42.0153 12.2875C41.9308 12.5425 41.7939 12.777 41.6134 12.9759C41.4329 13.1749 41.2128 13.3338 40.9672 13.4426C40.7216 13.5514 40.4559 13.6076 40.1873 13.6076C39.9187 13.6076 39.6531 13.5514 39.4075 13.4426C39.1619 13.3338 38.9418 13.1749 38.7613 12.9759C38.5808 12.777 38.4439 12.5425 38.3594 12.2875C38.2749 12.0325 38.2448 11.7627 38.2708 11.4954ZM41.2789 11.4954C41.2789 10.6144 40.8832 10.0993 40.1887 10.0993C39.4915 10.0993 39.0993 10.6144 39.0993 11.4954C39.0993 12.3834 39.4915 12.8945 40.1887 12.8945C40.8832 12.8945 41.2789 12.3798 41.2789 11.4954Z" fill="white"/>
<path d="M47.1958 13.5289H46.3638L45.5239 10.5357H45.4604L44.624 13.5289H43.7999L42.6797 9.46484H43.4932L44.2212 12.5659H44.2812L45.1167 9.46484H45.8861L46.7217 12.5659H46.7851L47.5096 9.46484H48.3117L47.1958 13.5289Z" fill="white"/>
<path d="M49.2539 9.46526H50.026V10.1109H50.0859C50.1876 9.87899 50.3591 9.68461 50.5765 9.55482C50.7939 9.42503 51.0463 9.3663 51.2987 9.38681C51.4964 9.37195 51.695 9.40176 51.8796 9.47405C52.0643 9.54634 52.2303 9.65925 52.3654 9.80441C52.5005 9.94958 52.6012 10.1233 52.6601 10.3126C52.7189 10.502 52.7344 10.7022 52.7054 10.8984V13.5292H51.9033V11.0998C51.9033 10.4467 51.6195 10.1219 51.0264 10.1219C50.8921 10.1156 50.7581 10.1385 50.6335 10.1889C50.5089 10.2393 50.3966 10.316 50.3045 10.4138C50.2123 10.5116 50.1424 10.6282 50.0995 10.7556C50.0566 10.883 50.0417 11.0181 50.056 11.1518V13.5293H49.2539L49.2539 9.46526Z" fill="white"/>
<path d="M53.9805 7.87891H54.7825V13.5294H53.9805V7.87891Z" fill="white"/>
<path d="M55.8997 11.4954C55.8741 11.2283 55.9047 10.9589 55.9894 10.7043C56.0741 10.4497 56.2111 10.2156 56.3916 10.0171C56.5721 9.81854 56.792 9.6599 57.0374 9.55135C57.2828 9.44279 57.5481 9.38672 57.8164 9.38672C58.0847 9.38672 58.3501 9.44279 58.5955 9.55135C58.8408 9.6599 59.0608 9.81854 59.2413 10.0171C59.4218 10.2156 59.5587 10.4497 59.6434 10.7043C59.7282 10.9589 59.7587 11.2283 59.7332 11.4954C59.7592 11.7628 59.729 12.0326 59.6445 12.2876C59.56 12.5426 59.4231 12.7771 59.2426 12.976C59.0621 13.1749 58.8419 13.3339 58.5963 13.4427C58.3507 13.5515 58.0851 13.6077 57.8164 13.6077C57.5478 13.6077 57.2822 13.5515 57.0366 13.4427C56.7909 13.3339 56.5708 13.1749 56.3903 12.976C56.2098 12.7771 56.0729 12.5426 55.9884 12.2876C55.9039 12.0326 55.8737 11.7628 55.8997 11.4954ZM58.9078 11.4954C58.9078 10.6145 58.512 10.0993 57.8175 10.0993C57.1204 10.0993 56.7282 10.6145 56.7282 11.4954C56.7282 12.3834 57.1204 12.8946 57.8175 12.8946C58.5121 12.8946 58.9078 12.3799 58.9078 11.4954Z" fill="white"/>
<path d="M60.5781 12.3799C60.5781 11.6483 61.1228 11.2266 62.0897 11.1666L63.1905 11.1032V10.7524C63.1905 10.3232 62.9067 10.0808 62.3585 10.0808C61.9108 10.0808 61.6005 10.2452 61.5115 10.5325H60.735C60.817 9.83445 61.4736 9.38672 62.3955 9.38672C63.4144 9.38672 63.989 9.89394 63.989 10.7524V13.5292H63.217V12.958H63.1535C63.0247 13.1629 62.8438 13.3299 62.6294 13.442C62.4149 13.5541 62.1745 13.6073 61.9328 13.5961C61.7622 13.6139 61.5898 13.5957 61.4266 13.5427C61.2635 13.4897 61.1132 13.4031 60.9856 13.2886C60.858 13.174 60.7558 13.0339 60.6856 12.8774C60.6154 12.7209 60.5788 12.5514 60.5781 12.3799ZM63.1905 12.0326V11.6928L62.1981 11.7563C61.6384 11.7937 61.3846 11.9841 61.3846 12.3424C61.3846 12.7082 61.7019 12.921 62.1382 12.921C62.266 12.934 62.3952 12.921 62.5179 12.8831C62.6407 12.8451 62.7545 12.7828 62.8527 12.6999C62.9509 12.617 63.0314 12.5152 63.0894 12.4006C63.1474 12.2859 63.1818 12.1608 63.1905 12.0326Z" fill="white"/>
<path d="M65.043 11.4956C65.043 10.2115 65.7031 9.39797 66.7299 9.39797C66.9839 9.38626 67.236 9.4471 67.4567 9.57336C67.6774 9.69961 67.8575 9.88608 67.9762 10.111H68.0361V7.87891H68.8382V13.5294H68.0696V12.8873H68.0062C67.8784 13.1107 67.6919 13.2948 67.4669 13.4198C67.242 13.5448 66.9871 13.6058 66.7299 13.5964C65.6961 13.5964 65.043 12.7829 65.043 11.4956ZM65.8715 11.4956C65.8715 12.3576 66.2778 12.8763 66.9573 12.8763C67.6333 12.8763 68.0511 12.3501 68.0511 11.4992C68.0511 10.6522 67.629 10.1185 66.9573 10.1185C66.2822 10.1185 65.8715 10.6407 65.8715 11.4956Z" fill="white"/>
<path d="M72.1575 11.4954C72.132 11.2283 72.1625 10.9588 72.2472 10.7042C72.3319 10.4497 72.4689 10.2156 72.6493 10.0171C72.8298 9.81853 73.0497 9.6599 73.2951 9.55134C73.5404 9.44279 73.8058 9.38672 74.0741 9.38672C74.3423 9.38672 74.6077 9.44279 74.853 9.55134C75.0984 9.6599 75.3183 9.81853 75.4988 10.0171C75.6792 10.2156 75.8162 10.4497 75.9009 10.7042C75.9856 10.9588 76.0161 11.2283 75.9906 11.4954C76.0166 11.7627 75.9864 12.0325 75.902 12.2875C75.8175 12.5425 75.6806 12.777 75.5001 12.9759C75.3196 13.1749 75.0995 13.3338 74.8539 13.4426C74.6083 13.5514 74.3427 13.6076 74.0741 13.6076C73.8054 13.6076 73.5398 13.5514 73.2942 13.4426C73.0486 13.3338 72.8285 13.1749 72.648 12.9759C72.4675 12.777 72.3306 12.5425 72.2461 12.2875C72.1617 12.0325 72.1315 11.7627 72.1575 11.4954ZM75.1656 11.4954C75.1656 10.6144 74.7699 10.0993 74.0754 10.0993C73.3782 10.0993 72.986 10.6144 72.986 11.4954C72.986 12.3834 73.3782 12.8945 74.0754 12.8945C74.7699 12.8945 75.1656 12.3798 75.1656 11.4954Z" fill="white"/>
<path d="M77.0664 9.46526H77.8385V10.1109H77.8984C78.0001 9.87899 78.1716 9.68461 78.389 9.55482C78.6064 9.42503 78.8588 9.3663 79.1112 9.38681C79.3089 9.37195 79.5075 9.40176 79.6921 9.47405C79.8768 9.54634 80.0428 9.65925 80.1779 9.80441C80.313 9.94958 80.4137 10.1233 80.4726 10.3126C80.5314 10.502 80.5469 10.7022 80.5179 10.8984V13.5292H79.7158V11.0998C79.7158 10.4467 79.432 10.1219 78.8389 10.1219C78.7046 10.1156 78.5706 10.1385 78.446 10.1889C78.3214 10.2393 78.2091 10.316 78.117 10.4138C78.0248 10.5116 77.9549 10.6282 77.912 10.7556C77.8691 10.883 77.8542 11.0181 77.8685 11.1518V13.5293H77.0664V9.46526Z" fill="white"/>
<path d="M85.0497 8.45312V9.48345H85.9302V10.159H85.0497V12.2488C85.0497 12.6745 85.2251 12.8609 85.6243 12.8609C85.7265 12.8605 85.8286 12.8544 85.9302 12.8424V13.5104C85.7861 13.5362 85.6402 13.5499 85.4939 13.5514C84.6019 13.5514 84.2467 13.2377 84.2467 12.4541V10.159H83.6016V9.48341H84.2467V8.45312H85.0497Z" fill="white"/>
<path d="M87.0234 7.87891H87.8184V10.1185H87.8819C87.9885 9.88444 88.1647 9.68896 88.3864 9.55868C88.6082 9.4284 88.8647 9.36966 89.1211 9.39047C89.3178 9.37976 89.5144 9.4126 89.697 9.48665C89.8795 9.56069 90.0435 9.67412 90.1772 9.81883C90.3109 9.96354 90.411 10.136 90.4704 10.3238C90.5297 10.5117 90.5469 10.7103 90.5207 10.9055V13.5294H89.7178V11.1034C89.7178 10.4543 89.4155 10.1255 88.8488 10.1255C88.7109 10.1142 88.5723 10.1332 88.4425 10.181C88.3128 10.2289 88.195 10.3046 88.0976 10.4027C88.0001 10.5009 87.9252 10.6191 87.8783 10.7492C87.8313 10.8793 87.8133 11.0181 87.8255 11.1558V13.5294H87.0235L87.0234 7.87891Z" fill="white"/>
<path d="M95.1986 12.4319C95.0896 12.8034 94.8535 13.1246 94.5316 13.3396C94.2097 13.5545 93.8225 13.6494 93.4376 13.6077C93.1699 13.6147 92.9038 13.5635 92.6579 13.4574C92.4119 13.3513 92.192 13.193 92.0134 12.9934C91.8348 12.7938 91.7017 12.5578 91.6235 12.3016C91.5452 12.0455 91.5237 11.7753 91.5603 11.51C91.5246 11.2439 91.5466 10.9732 91.6246 10.7163C91.7027 10.4593 91.835 10.2222 92.0127 10.0208C92.1904 9.81952 92.4093 9.65871 92.6545 9.54932C92.8997 9.43992 93.1656 9.3845 93.4341 9.38679C94.5649 9.38679 95.2471 10.1593 95.2471 11.4355V11.7154H92.3773V11.7603C92.3648 11.9095 92.3835 12.0596 92.4324 12.2011C92.4812 12.3425 92.5591 12.4722 92.661 12.5818C92.7629 12.6915 92.8866 12.7786 93.0241 12.8376C93.1616 12.8966 93.31 12.9263 93.4597 12.9246C93.6515 12.9476 93.8459 12.9131 94.018 12.8253C94.1902 12.7376 94.3324 12.6007 94.4265 12.4319L95.1986 12.4319ZM92.3773 11.1222H94.43C94.4401 10.9858 94.4216 10.8488 94.3756 10.72C94.3296 10.5912 94.2572 10.4734 94.163 10.3743C94.0688 10.2751 93.9549 10.1968 93.8286 10.1443C93.7023 10.0918 93.5664 10.0663 93.4297 10.0694C93.2909 10.0677 93.1533 10.0937 93.0248 10.146C92.8963 10.1983 92.7796 10.2758 92.6815 10.3739C92.5834 10.472 92.506 10.5888 92.4538 10.7173C92.4015 10.8458 92.3755 10.9835 92.3773 11.1222Z" fill="white"/>
</g>
<defs>
<clipPath id="clip0_1405_16650">
<rect width="108" height="36.1011" fill="white" transform="translate(0.648438 0.265625)"/>
</clipPath>
</defs>
</svg>
